<svg width="593" height="143" viewBox="0 0 593 143" fill="none" xmlns="http://www.w3.org/2000/svg">
<path d="M145.375 6.34961C142.667 8.09961 139.833 9.57878 136.875 10.7871C133.958 11.9538 130.938 12.8913 127.812 13.5996C124.688 14.3079 121.479 14.8079 118.188 15.0996C114.896 15.3913 111.562 15.5371 108.188 15.5371C103.938 15.5371 99.4583 15.3288 94.75 14.9121C90.0417 14.4538 85.3542 13.9746 80.6875 13.4746C76.0625 12.9746 71.5833 12.5163 67.25 12.0996C62.9167 11.6413 59 11.4121 55.5 11.4121C50.375 11.4121 45.7083 12.0788 41.5 13.4121C37.2917 14.7038 33.6875 16.5579 30.6875 18.9746C27.6875 21.3496 25.3542 24.2246 23.6875 27.5996C22.0625 30.9329 21.25 34.6621 21.25 38.7871C21.25 41.6621 21.7292 44.2663 22.6875 46.5996C23.6875 48.8913 25.0833 50.8288 26.875 52.4121C28.7083 53.9954 30.8958 55.2246 33.4375 56.0996C35.9792 56.9329 38.7917 57.3496 41.875 57.3496C44.5417 57.3496 47.2917 57.0371 50.125 56.4121C52.9583 55.7454 55.75 54.7663 58.5 53.4746L59.8125 56.0371C57.0208 57.6621 53.7917 58.9538 50.125 59.9121C46.5 60.8704 42.8333 61.3496 39.125 61.3496C35.9167 61.3496 32.8333 60.8913 29.875 59.9746C26.9167 59.0579 24.2708 57.6829 21.9375 55.8496C19.6458 53.9746 17.8125 51.6413 16.4375 48.8496C15.0625 46.0163 14.375 42.7038 14.375 38.9121C14.375 35.1621 14.9375 31.8079 16.0625 28.8496C17.1875 25.8496 18.7292 23.2038 20.6875 20.9121C22.6458 18.5788 24.9375 16.5996 27.5625 14.9746C30.1875 13.3496 33 12.0163 36 10.9746C39.0417 9.89128 42.1875 9.12044 45.4375 8.66211C48.6875 8.16211 51.9167 7.91211 55.125 7.91211C58.9583 7.91211 63.0625 8.14128 67.4375 8.59961C71.8542 9.05794 76.3542 9.55794 80.9375 10.0996C85.5208 10.5996 90.125 11.0788 94.75 11.5371C99.375 11.9954 103.854 12.2246 108.188 12.2246C111.438 12.2246 114.646 12.0996 117.812 11.8496C120.979 11.5579 124.042 11.0788 127 10.4121C130 9.74544 132.875 8.87044 135.625 7.78711C138.417 6.66211 141.083 5.26628 143.625 3.59961L145.375 6.34961ZM101.5 21.0371C97.9583 25.2871 94.8125 29.7454 92.0625 34.4121C89.3542 39.0371 86.8333 43.6829 84.5 48.3496C82.2083 53.0163 80.0208 57.6413 77.9375 62.2246C75.8542 66.7663 73.6875 71.0996 71.4375 75.2246C69.1875 79.3079 66.7708 83.0996 64.1875 86.5996C61.6458 90.0579 58.7292 93.0579 55.4375 95.5996C52.1875 98.1413 48.4583 100.12 44.25 101.537C40.0833 102.995 35.2917 103.725 29.875 103.725C25.0833 103.725 20.8333 103.1 17.125 101.85C13.4583 100.641 10.375 98.9538 7.875 96.7871C5.375 94.6621 3.47917 92.1621 2.1875 89.2871C0.895833 86.3704 0.25 83.2246 0.25 79.8496C0.25 78.5579 0.333333 77.3288 0.5 76.1621C0.666667 74.9954 0.916667 73.9329 1.25 72.9746L4.375 73.9121C4.125 74.7454 3.91667 75.6829 3.75 76.7246C3.58333 77.7246 3.5 78.7663 3.5 79.8496C3.5 83.3079 4.22917 86.3288 5.6875 88.9121C7.14583 91.4954 9.0625 93.6413 11.4375 95.3496C13.8125 97.0579 16.5208 98.3288 19.5625 99.1621C22.6042 100.037 25.7083 100.475 28.875 100.475C33.4583 100.475 37.5208 99.6829 41.0625 98.0996C44.6458 96.5163 47.8958 94.3704 50.8125 91.6621C53.7292 88.9121 56.375 85.7038 58.75 82.0371C61.1667 78.3704 63.5 74.4329 65.75 70.2246C68 66.0163 70.25 61.6413 72.5 57.0996C74.7917 52.5579 77.25 48.0579 79.875 43.5996C82.5417 39.1413 85.4583 34.8496 88.625 30.7246C91.7917 26.5579 95.4167 22.7663 99.5 19.3496L101.5 21.0371ZM106.375 70.6621C108.583 67.6621 110.875 64.9121 113.25 62.4121C115.625 59.8704 118.021 57.6829 120.438 55.8496C122.854 54.0163 125.229 52.5996 127.562 51.5996C129.938 50.5579 132.229 50.0371 134.438 50.0371C135.938 50.0371 137.167 50.2663 138.125 50.7246C139.125 51.1829 139.896 51.7871 140.438 52.5371C141.021 53.2454 141.417 54.0371 141.625 54.9121C141.875 55.7871 142 56.6621 142 57.5371C142 59.0371 141.688 60.6621 141.062 62.4121C140.438 64.1204 139.646 65.9121 138.688 67.7871C137.771 69.6621 136.771 71.5788 135.688 73.5371C134.604 75.4954 133.583 77.4121 132.625 79.2871C131.708 81.1621 130.938 82.9954 130.312 84.7871C129.688 86.5371 129.375 88.1829 129.375 89.7246C129.375 90.6829 129.583 91.5788 130 92.4121C130.458 93.2038 131.25 93.5996 132.375 93.5996C133.708 93.5996 135.188 92.9329 136.812 91.5996C138.438 90.2246 140.083 88.4954 141.75 86.4121C143.458 84.2871 145.146 81.9329 146.812 79.3496C148.521 76.7663 150.104 74.2454 151.562 71.7871L153.812 73.5371C153.354 74.1621 152.729 75.1829 151.938 76.5996C151.146 77.9746 150.208 79.5371 149.125 81.2871C148.083 82.9954 146.896 84.7663 145.562 86.5996C144.271 88.4329 142.875 90.1204 141.375 91.6621C139.917 93.1621 138.375 94.3913 136.75 95.3496C135.125 96.3496 133.479 96.8496 131.812 96.8496C130.729 96.8496 129.646 96.7246 128.562 96.4746C127.479 96.2246 126.5 95.7663 125.625 95.0996C124.75 94.4329 124.042 93.5371 123.5 92.4121C122.958 91.2454 122.688 89.7871 122.688 88.0371C122.688 85.9954 123.021 83.9329 123.688 81.8496C124.396 79.7246 125.25 77.6413 126.25 75.5996C127.292 73.5163 128.417 71.5163 129.625 69.5996C130.833 67.6413 131.938 65.8079 132.938 64.0996C133.979 62.3913 134.833 60.8496 135.5 59.4746C136.208 58.0579 136.562 56.8704 136.562 55.9121C136.562 54.2038 135.729 53.3496 134.062 53.3496C131.688 53.3496 129.167 54.1413 126.5 55.7246C123.875 57.2663 121.229 59.2871 118.562 61.7871C115.896 64.2871 113.271 67.0996 110.688 70.2246C108.104 73.3079 105.688 76.3913 103.438 79.4746L93.9375 97.3496L88.25 95.0996C93.5417 83.5579 98.625 72.1621 103.5 60.9121C108.417 49.6204 113.458 38.4746 118.625 27.4746C119.417 25.7663 120.333 23.9121 121.375 21.9121C122.458 19.9121 123.604 17.9121 124.812 15.9121C126.062 13.9121 127.396 11.9954 128.812 10.1621C130.229 8.32878 131.688 6.70378 133.188 5.28711C134.688 3.87044 136.229 2.74544 137.812 1.91211C139.438 1.03711 141.062 0.599609 142.688 0.599609C144.521 0.599609 145.938 1.12044 146.938 2.16211C147.979 3.16211 148.5 4.59961 148.5 6.47461C148.5 8.43294 147.979 10.6621 146.938 13.1621C145.896 15.6204 144.5 18.2246 142.75 20.9746C141 23.7246 138.958 26.5579 136.625 29.4746C134.333 32.3913 131.896 35.2871 129.312 38.1621C126.771 41.0371 124.188 43.8288 121.562 46.5371C118.938 49.2038 116.417 51.6829 114 53.9746L106.375 70.6621ZM143 3.91211C141.125 3.91211 139.396 4.64128 137.812 6.09961C136.271 7.51628 134.583 9.87044 132.75 13.1621C130.917 16.4538 128.812 20.7454 126.438 26.0371C124.062 31.3288 121.167 37.8288 117.75 45.5371C122.333 41.0788 126.333 36.7663 129.75 32.5996C133.208 28.3913 136.083 24.5579 138.375 21.0996C140.667 17.6413 142.375 14.6413 143.5 12.0996C144.667 9.51628 145.25 7.59961 145.25 6.34961C145.25 5.59961 145.042 5.01628 144.625 4.59961C144.208 4.14128 143.667 3.91211 143 3.91211ZM201.312 53.5371C200.771 54.6204 200 56.0371 199 57.7871C198.042 59.5371 197 61.4746 195.875 63.5996C194.75 65.6829 193.604 67.8704 192.438 70.1621C191.312 72.4538 190.271 74.7038 189.312 76.9121C188.396 79.0788 187.625 81.1413 187 83.0996C186.417 85.0163 186.125 86.6413 186.125 87.9746C186.125 89.3079 186.375 90.1829 186.875 90.5996C187.417 90.9746 188.104 91.1621 188.938 91.1621C190.146 91.1621 191.375 90.8079 192.625 90.0996C193.917 89.3913 195.167 88.4746 196.375 87.3496C197.625 86.2246 198.833 84.9538 200 83.5371C201.167 82.1204 202.25 80.7038 203.25 79.2871C204.292 77.8288 205.229 76.4538 206.062 75.1621C206.896 73.8288 207.604 72.7038 208.188 71.7871L210.438 73.5371C209.729 74.8704 208.896 76.3079 207.938 77.8496C206.979 79.3913 205.917 80.9538 204.75 82.5371C203.625 84.0788 202.396 85.5788 201.062 87.0371C199.729 88.4954 198.312 89.7871 196.812 90.9121C195.354 92.0371 193.812 92.9329 192.188 93.5996C190.562 94.2663 188.896 94.5996 187.188 94.5996C184.688 94.5996 182.854 93.8496 181.688 92.3496C180.521 90.8496 179.938 88.9121 179.938 86.5371C179.938 86.3704 179.938 86.0163 179.938 85.4746C179.979 84.8913 180.042 84.4329 180.125 84.0996C178.042 86.7246 176.042 88.8913 174.125 90.5996C172.25 92.3079 170.417 93.6621 168.625 94.6621C166.875 95.6621 165.167 96.3496 163.5 96.7246C161.875 97.1413 160.312 97.3496 158.812 97.3496C157.229 97.3496 155.729 97.0788 154.312 96.5371C152.938 96.0371 151.729 95.2871 150.688 94.2871C149.604 93.2871 148.771 92.0579 148.188 90.5996C147.562 89.1413 147.25 87.4538 147.25 85.5371C147.25 83.1621 147.792 80.4538 148.875 77.4121C149.917 74.3288 151.792 71.0163 154.5 67.4746C156.792 64.4329 159.167 61.8704 161.625 59.7871C164.125 57.7038 166.562 56.0371 168.938 54.7871C171.354 53.4954 173.646 52.5788 175.812 52.0371C177.979 51.4954 179.917 51.2246 181.625 51.2246C185.458 51.2246 188.354 51.8704 190.312 53.1621C192.271 54.4121 193.458 56.3496 193.875 58.9746C194.708 57.9329 195.583 56.8913 196.5 55.8496C197.417 54.8079 198.354 53.7454 199.312 52.6621L201.312 53.5371ZM182.125 77.2871C182.667 76.4121 183.333 75.3079 184.125 73.9746C184.917 72.5996 185.75 71.2038 186.625 69.7871C187.5 68.3288 188.354 66.9329 189.188 65.5996C190.021 64.2663 190.75 63.1413 191.375 62.2246C191.375 61.8496 191.312 61.2454 191.188 60.4121C191.104 59.5788 190.833 58.7454 190.375 57.9121C189.917 57.0371 189.188 56.2871 188.188 55.6621C187.188 55.0371 185.792 54.7246 184 54.7246C182.708 54.7246 181.25 54.9329 179.625 55.3496C178.042 55.7246 176.333 56.3913 174.5 57.3496C172.708 58.2663 170.854 59.4954 168.938 61.0371C167.021 62.5788 165.104 64.4954 163.188 66.7871C160.312 70.2454 158.083 73.7246 156.5 77.2246C154.958 80.6829 154.188 83.8079 154.188 86.5996C154.188 88.9746 154.729 90.8079 155.812 92.0996C156.896 93.3913 158.438 94.0371 160.438 94.0371C162.729 94.0371 164.875 93.5371 166.875 92.5371C168.875 91.4954 170.75 90.1621 172.5 88.5371C174.25 86.9121 175.917 85.1204 177.5 83.1621C179.083 81.1621 180.625 79.2038 182.125 77.2871ZM260.438 62.6621C260.438 64.4538 260.125 66.2871 259.5 68.1621C258.875 69.9954 258.083 71.8496 257.125 73.7246C256.167 75.5579 255.146 77.3704 254.062 79.1621C252.979 80.9538 251.958 82.6829 251 84.3496C250.042 86.0163 249.25 87.6204 248.625 89.1621C248 90.6621 247.688 92.0371 247.688 93.2871C247.688 94.2454 247.896 94.8913 248.312 95.2246C248.729 95.5579 249.188 95.7246 249.688 95.7246C251.271 95.7246 253.042 94.9538 255 93.4121C256.958 91.8288 258.938 89.8496 260.938 87.4746C262.979 85.0996 265 82.5163 267 79.7246C269 76.9329 270.812 74.2871 272.438 71.7871L274.688 73.5371C274.354 74.0371 273.75 75.0371 272.875 76.5371C272 77.9954 270.917 79.6829 269.625 81.5996C268.333 83.4746 266.875 85.4538 265.25 87.5371C263.667 89.5788 261.958 91.4746 260.125 93.2246C258.292 94.9329 256.396 96.3496 254.438 97.4746C252.521 98.5996 250.583 99.1621 248.625 99.1621C247.5 99.1621 246.479 98.9746 245.562 98.5996C244.646 98.2246 243.854 97.7038 243.188 97.0371C242.562 96.3704 242.062 95.5996 241.688 94.7246C241.312 93.8079 241.125 92.8496 241.125 91.8496C241.125 90.2246 241.479 88.4746 242.188 86.5996C242.938 84.6829 243.854 82.7246 244.938 80.7246C246.021 78.7246 247.208 76.7246 248.5 74.7246C249.792 72.6829 250.979 70.7454 252.062 68.9121C253.146 67.0788 254.042 65.3913 254.75 63.8496C255.5 62.2663 255.875 60.9121 255.875 59.7871C255.875 58.4954 255.521 57.4121 254.812 56.5371C254.146 55.6621 253.188 55.2246 251.938 55.2246C250.604 55.2246 249.062 55.7871 247.312 56.9121C245.562 57.9954 243.604 59.5996 241.438 61.7246C239.271 63.8496 236.896 66.4746 234.312 69.5996C231.771 72.6829 229 76.2038 226 80.1621C224.292 82.4538 222.625 84.6621 221 86.7871C220.292 87.7038 219.583 88.6413 218.875 89.5996C218.167 90.5579 217.458 91.5163 216.75 92.4746C216.042 93.3913 215.375 94.2663 214.75 95.0996C214.125 95.9746 213.562 96.7246 213.062 97.3496L207.562 95.0996L214.875 85.0371C215.917 83.6204 216.979 82.0996 218.062 80.4746C219.146 78.8496 220.208 77.1829 221.25 75.4746C222.333 73.7246 223.354 71.9746 224.312 70.2246C225.271 68.4746 226.167 66.7663 227 65.0996C228.208 62.5996 229.042 60.5371 229.5 58.9121C229.958 57.2454 230.188 55.9121 230.188 54.9121C230.188 53.7871 229.979 53.0579 229.562 52.7246C229.146 52.3496 228.562 52.1621 227.812 52.1621C227.021 52.1621 226.104 52.5788 225.062 53.4121C224.062 54.2038 223.021 55.2454 221.938 56.5371C220.854 57.7871 219.75 59.2246 218.625 60.8496C217.542 62.4329 216.5 64.0163 215.5 65.5996C214.5 67.1829 213.562 68.6829 212.688 70.0996C211.812 71.5163 211.083 72.6621 210.5 73.5371L208.25 71.7871C210.375 68.4538 212.292 65.4121 214 62.6621C215.75 59.8704 217.417 57.4746 219 55.4746C220.625 53.4746 222.188 51.9329 223.688 50.8496C225.229 49.7246 226.854 49.1621 228.562 49.1621C229.479 49.1621 230.354 49.3496 231.188 49.7246C232.062 50.0996 232.812 50.6621 233.438 51.4121C234.104 52.1204 234.625 52.9954 235 54.0371C235.375 55.0788 235.562 56.2871 235.562 57.6621C235.562 58.7454 235.438 59.8704 235.188 61.0371C237.021 59.2454 238.729 57.7663 240.312 56.5996C241.896 55.4329 243.354 54.5163 244.688 53.8496C246.021 53.1413 247.25 52.6413 248.375 52.3496C249.5 52.0579 250.521 51.9121 251.438 51.9121C252.229 51.9121 253.146 52.0579 254.188 52.3496C255.229 52.6413 256.208 53.1829 257.125 53.9746C258.042 54.7663 258.812 55.8704 259.438 57.2871C260.104 58.6621 260.438 60.4538 260.438 62.6621ZM280 73.1621C282.167 70.1621 284.458 67.2871 286.875 64.5371C289.333 61.7454 291.812 59.2871 294.312 57.1621C296.812 54.9954 299.333 53.2663 301.875 51.9746C304.417 50.6829 306.896 50.0371 309.312 50.0371C310.812 50.0371 312.042 50.2663 313 50.7246C313.958 51.1829 314.708 51.7663 315.25 52.4746C315.833 53.1829 316.229 53.9954 316.438 54.9121C316.688 55.7871 316.812 56.6621 316.812 57.5371C316.812 58.7871 316.562 60.1413 316.062 61.5996C315.604 63.0579 314.875 64.5371 313.875 66.0371C312.917 67.4954 311.688 68.9121 310.188 70.2871C308.688 71.6204 306.896 72.8288 304.812 73.9121C305.271 74.9954 305.5 76.3079 305.5 77.8496C305.5 78.8079 305.375 79.7871 305.125 80.7871C304.875 81.7454 304.604 82.7038 304.312 83.6621C304.021 84.6204 303.75 85.5996 303.5 86.5996C303.25 87.5579 303.125 88.5371 303.125 89.5371C303.125 90.0371 303.146 90.5163 303.188 90.9746C303.271 91.4329 303.396 91.8496 303.562 92.2246C303.771 92.5996 304.062 92.9121 304.438 93.1621C304.854 93.3704 305.417 93.4746 306.125 93.4746C306.958 93.4746 307.917 93.1413 309 92.4746C310.083 91.7663 311.229 90.8496 312.438 89.7246C313.646 88.5996 314.875 87.3079 316.125 85.8496C317.417 84.3496 318.667 82.7871 319.875 81.1621C321.083 79.5371 322.25 77.9329 323.375 76.3496C324.5 74.7246 325.521 73.2038 326.438 71.7871L328.75 73.5371C326.625 76.7038 324.542 79.7246 322.5 82.5996C320.5 85.4746 318.479 87.9954 316.438 90.1621C314.438 92.3288 312.396 94.0579 310.312 95.3496C308.229 96.6413 306.083 97.2871 303.875 97.2871C303 97.2871 302.083 97.1621 301.125 96.9121C300.208 96.6621 299.354 96.2454 298.562 95.6621C297.812 95.1204 297.188 94.3913 296.688 93.4746C296.188 92.5579 295.938 91.4329 295.938 90.0996C295.938 88.5163 296.333 86.6621 297.125 84.5371C297.833 82.5371 298.354 80.8704 298.688 79.5371C299.021 78.1621 299.208 77.0163 299.25 76.0996C298.375 76.3079 297.438 76.4954 296.438 76.6621C295.479 76.8288 294.562 76.9121 293.688 76.9121C293.229 76.9121 292.729 76.8704 292.188 76.7871C291.646 76.6621 291.146 76.4746 290.688 76.2246C290.229 75.9746 289.833 75.6621 289.5 75.2871C289.208 74.8704 289.062 74.3496 289.062 73.7246C289.062 73.0996 289.25 72.5163 289.625 71.9746C290.042 71.3913 290.583 70.8913 291.25 70.4746C291.958 70.0163 292.792 69.6621 293.75 69.4121C294.708 69.1621 295.771 69.0371 296.938 69.0371C299.104 69.0371 300.958 69.6204 302.5 70.7871C304 69.6204 305.229 68.3496 306.188 66.9746C307.188 65.5996 307.958 64.2663 308.5 62.9746C309.042 61.6829 309.417 60.5371 309.625 59.5371C309.833 58.4954 309.938 57.7246 309.938 57.2246C309.938 55.8496 309.688 54.9121 309.188 54.4121C308.688 53.8704 308.083 53.5996 307.375 53.5996C306.042 53.5996 304.542 54.0371 302.875 54.9121C301.25 55.7871 299.542 56.9746 297.75 58.4746C296 59.9746 294.188 61.7038 292.312 63.6621C290.479 65.6204 288.667 67.6829 286.875 69.8496C285.125 72.0163 283.417 74.2038 281.75 76.4121C280.125 78.6204 278.625 80.7038 277.25 82.6621C276 84.7454 274.875 86.6829 273.875 88.4746C272.917 90.2663 272.104 91.8079 271.438 93.0996C270.771 94.3913 270.25 95.3704 269.875 96.0371C269.5 96.7038 269.292 96.9329 269.25 96.7246L263.062 95.0996C267.979 83.8913 272.958 72.6829 278 61.4746C283.042 50.2663 288.354 38.9329 293.938 27.4746C294.771 25.8079 295.708 23.9954 296.75 22.0371C297.833 20.0371 298.979 18.0579 300.188 16.0996C301.438 14.0996 302.75 12.1621 304.125 10.2871C305.542 8.41211 306.979 6.76628 308.438 5.34961C309.938 3.89128 311.458 2.74544 313 1.91211C314.542 1.03711 316.083 0.599609 317.625 0.599609C319.25 0.599609 320.562 1.05794 321.562 1.97461C322.604 2.89128 323.125 4.34961 323.125 6.34961C323.125 9.09961 322.375 12.4538 320.875 16.4121C319.417 20.3288 317.229 24.4954 314.312 28.9121C311.396 33.3288 307.75 37.8079 303.375 42.3496C299.042 46.8496 293.979 51.0371 288.188 54.9121L280 73.1621ZM290.938 48.9121C295.979 44.9954 300.312 40.9746 303.938 36.8496C307.604 32.6829 310.604 28.6829 312.938 24.8496C315.312 21.0163 317.042 17.4746 318.125 14.2246C319.25 10.9329 319.812 8.18294 319.812 5.97461C319.812 5.34961 319.646 4.84961 319.312 4.47461C318.979 4.09961 318.458 3.91211 317.75 3.91211C316.208 3.91211 314.625 4.68294 313 6.22461C311.375 7.72461 309.521 10.2246 307.438 13.7246C305.396 17.2246 303.042 21.8496 300.375 27.5996C297.708 33.3496 294.562 40.4538 290.938 48.9121ZM298.938 73.2871C298.729 72.8288 298.375 72.4329 297.875 72.0996C297.417 71.7246 296.896 71.5371 296.312 71.5371C295.104 71.5371 294.042 71.7871 293.125 72.2871C292.208 72.7871 291.75 73.2663 291.75 73.7246C291.75 74.0579 291.938 74.2871 292.312 74.4121C292.729 74.4954 293.104 74.5371 293.438 74.5371C294.521 74.5371 295.521 74.4121 296.438 74.1621C297.354 73.9121 298.188 73.6204 298.938 73.2871ZM402.75 87.4746C401.5 87.0996 400.354 86.8079 399.312 86.5996C398.271 86.3496 397.229 86.1621 396.188 86.0371C395.188 85.9121 394.167 85.8288 393.125 85.7871C392.083 85.7038 390.958 85.6621 389.75 85.6621C385.792 85.6621 382.062 86.3288 378.562 87.6621C375.062 88.9954 372 90.8704 369.375 93.2871C366.792 95.7038 364.75 98.5788 363.25 101.912C361.708 105.287 360.938 108.975 360.938 112.975C360.938 117.141 361.771 120.829 363.438 124.037C365.062 127.287 367.312 130.016 370.188 132.225C373.062 134.433 376.458 136.1 380.375 137.225C384.292 138.391 388.542 138.975 393.125 138.975C398.875 138.975 404.167 138.204 409 136.662C413.833 135.162 418.312 133.037 422.438 130.287C426.604 127.537 430.479 124.266 434.062 120.475C437.646 116.683 441.062 112.516 444.312 107.975C447.604 103.433 450.771 98.5788 453.812 93.4121C456.854 88.2454 459.917 82.9329 463 77.4746C460.375 80.2663 457.812 82.7663 455.312 84.9746C452.812 87.1413 450.333 88.9954 447.875 90.5371C445.417 92.0371 442.958 93.1829 440.5 93.9746C438.083 94.7663 435.604 95.1621 433.062 95.1621C431.562 95.1621 430 94.9538 428.375 94.5371C426.792 94.1204 425.354 93.4329 424.062 92.4746C422.771 91.4746 421.708 90.2038 420.875 88.6621C420.042 87.0788 419.625 85.1621 419.625 82.9121C419.625 81.4538 419.896 79.9329 420.438 78.3496C421.021 76.7246 421.896 74.9746 423.062 73.0996C424.229 71.2246 425.667 69.2038 427.375 67.0371C429.125 64.8288 431.167 62.3913 433.5 59.7246C436.292 56.5579 438.625 53.5371 440.5 50.6621C442.375 47.7871 443.896 45.0788 445.062 42.5371C446.229 39.9954 447.062 37.6204 447.562 35.4121C448.062 33.1621 448.312 31.0788 448.312 29.1621C448.312 25.3704 447.604 22.1204 446.188 19.4121C444.812 16.7038 442.938 14.4954 440.562 12.7871C438.188 11.0788 435.438 9.82878 432.312 9.03711C429.188 8.20378 425.896 7.78711 422.438 7.78711C418.812 7.78711 415.167 8.14128 411.5 8.84961C407.833 9.51628 404.292 10.5163 400.875 11.8496C397.458 13.1829 394.25 14.8288 391.25 16.7871C388.292 18.7454 385.708 20.9954 383.5 23.5371C381.292 26.0371 379.542 28.8288 378.25 31.9121C377 34.9538 376.375 38.2663 376.375 41.8496C376.375 44.6829 376.854 47.2663 377.812 49.5996C378.771 51.9329 380.125 53.9538 381.875 55.6621C383.667 57.3288 385.833 58.6204 388.375 59.5371C390.917 60.4538 393.792 60.9121 397 60.9121C399.125 60.9121 401.312 60.6621 403.562 60.1621C405.812 59.6621 408.021 58.9538 410.188 58.0371C412.396 57.0788 414.542 55.9121 416.625 54.5371C418.75 53.1621 420.75 51.5788 422.625 49.7871L424.562 51.8496C422.354 54.2663 420 56.3704 417.5 58.1621C415 59.9121 412.438 61.3704 409.812 62.5371C407.188 63.7038 404.542 64.5788 401.875 65.1621C399.208 65.7038 396.604 65.9746 394.062 65.9746C390.604 65.9746 387.354 65.5163 384.312 64.5996C381.312 63.6413 378.667 62.2246 376.375 60.3496C374.125 58.4329 372.333 56.0579 371 53.2246C369.708 50.3913 369.062 47.0788 369.062 43.2871C369.062 39.0371 369.854 35.1204 371.438 31.5371C373.062 27.9538 375.229 24.7246 377.938 21.8496C380.646 18.9746 383.792 16.4538 387.375 14.2871C390.958 12.1204 394.729 10.3079 398.688 8.84961C402.646 7.39128 406.667 6.30794 410.75 5.59961C414.833 4.84961 418.75 4.47461 422.5 4.47461C427.042 4.47461 431.146 5.05794 434.812 6.22461C438.521 7.39128 441.667 9.12044 444.25 11.4121C446.875 13.7038 448.896 16.5163 450.312 19.8496C451.729 23.1829 452.438 27.0371 452.438 31.4121C452.438 35.8704 451.812 40.0579 450.562 43.9746C449.312 47.8496 447.729 51.4746 445.812 54.8496C443.938 58.1829 441.896 61.2871 439.688 64.1621C437.521 67.0371 435.479 69.6829 433.562 72.0996C431.688 74.5163 430.125 76.7454 428.875 78.7871C427.625 80.7871 427 82.6204 427 84.2871C427 85.2871 427.146 86.2454 427.438 87.1621C427.771 88.0788 428.25 88.8913 428.875 89.5996C429.542 90.2663 430.354 90.8079 431.312 91.2246C432.271 91.6413 433.396 91.8496 434.688 91.8496C437.062 91.8496 439.708 91.1204 442.625 89.6621C445.542 88.1621 448.562 86.1413 451.688 83.5996C454.854 81.0163 458.062 77.9954 461.312 74.5371C464.604 71.0788 467.812 67.3704 470.938 63.4121C473.354 59.1621 475.854 54.9329 478.438 50.7246C481.062 46.5163 483.792 42.3913 486.625 38.3496C489.5 34.2663 492.521 30.2871 495.688 26.4121C498.896 22.5371 502.292 18.8496 505.875 15.3496L507.938 17.3496C502.479 23.9329 497.542 30.7663 493.125 37.8496C488.75 44.8913 484.625 51.9746 480.75 59.0996C476.875 66.1829 473.146 73.1829 469.562 80.0996C466.021 86.9746 462.354 93.4954 458.562 99.6621C454.771 105.829 450.729 111.537 446.438 116.787C442.188 122.037 437.417 126.558 432.125 130.35C426.875 134.183 421 137.162 414.5 139.287C408 141.454 400.604 142.537 392.312 142.537C387.479 142.537 382.75 141.954 378.125 140.787C373.542 139.62 369.458 137.829 365.875 135.412C362.292 132.995 359.417 129.975 357.25 126.35C355.083 122.725 354 118.433 354 113.475C354 109.766 354.542 106.433 355.625 103.475C356.667 100.516 358.083 97.8913 359.875 95.5996C361.625 93.3079 363.667 91.3288 366 89.6621C368.333 87.9954 370.771 86.6413 373.312 85.5996C375.854 84.5163 378.417 83.7246 381 83.2246C383.625 82.7246 386.104 82.4746 388.438 82.4746C390.188 82.4746 391.75 82.5163 393.125 82.5996C394.5 82.6413 395.771 82.7454 396.938 82.9121C398.146 83.0788 399.292 83.2871 400.375 83.5371C401.458 83.7454 402.604 84.0371 403.812 84.4121L402.75 87.4746ZM523.25 78.0996C523.417 78.1413 523.583 78.1621 523.75 78.1621C523.917 78.1621 524.104 78.1621 524.312 78.1621C525.479 78.1621 526.542 78.0579 527.5 77.8496C528.458 77.5996 529.333 77.2246 530.125 76.7246C530.958 76.2246 531.75 75.5788 532.5 74.7871C533.25 73.9538 533.979 72.9538 534.688 71.7871L536.938 73.5371C534.938 76.3704 532.875 78.3496 530.75 79.4746C528.625 80.5996 526.375 81.1621 524 81.1621C523.125 81.1621 522.354 81.0788 521.688 80.9121C519.896 83.9121 517.979 86.4746 515.938 88.5996C513.896 90.6829 511.812 92.3913 509.688 93.7246C507.562 95.0579 505.458 96.0163 503.375 96.5996C501.292 97.2246 499.354 97.5371 497.562 97.5371C495.729 97.5371 494.021 97.2038 492.438 96.5371C490.896 95.9121 489.562 94.9954 488.438 93.7871C487.312 92.5788 486.438 91.1413 485.812 89.4746C485.188 87.8079 484.875 85.9329 484.875 83.8496C484.875 81.7663 485.208 79.6413 485.875 77.4746C486.542 75.3079 487.438 73.1621 488.562 71.0371C489.729 68.9121 491.083 66.8704 492.625 64.9121C494.167 62.9121 495.833 61.0579 497.625 59.3496C499.417 57.6413 501.271 56.0996 503.188 54.7246C505.104 53.3496 507.021 52.2246 508.938 51.3496L510.938 53.9746C508.729 55.5579 506.479 57.5579 504.188 59.9746C501.938 62.3913 499.875 65.0371 498 67.9121C496.167 70.7871 494.646 73.7871 493.438 76.9121C492.271 79.9954 491.688 82.9954 491.688 85.9121C491.688 88.5371 492.271 90.5788 493.438 92.0371C494.604 93.4538 496.375 94.1621 498.75 94.1621C500.583 94.1621 502.396 93.7871 504.188 93.0371C505.979 92.2871 507.729 91.2663 509.438 89.9746C511.146 88.6829 512.792 87.1621 514.375 85.4121C515.958 83.6204 517.458 81.7246 518.875 79.7246C517.667 79.0163 516.604 78.0788 515.688 76.9121C514.771 75.7038 514 74.3496 513.375 72.8496C512.75 71.3079 512.271 69.6621 511.938 67.9121C511.646 66.1621 511.5 64.3704 511.5 62.5371C511.5 60.7038 511.729 58.9746 512.188 57.3496C512.646 55.7246 513.271 54.3079 514.062 53.0996C514.896 51.8496 515.854 50.8704 516.938 50.1621C518.021 49.4538 519.208 49.0996 520.5 49.0996C521.667 49.0996 522.708 49.4121 523.625 50.0371C524.542 50.6204 525.312 51.4538 525.938 52.5371C526.562 53.5788 527.042 54.8288 527.375 56.2871C527.708 57.7454 527.875 59.3079 527.875 60.9746C527.875 62.2246 527.771 63.5996 527.562 65.0996C527.354 66.5996 527.042 68.1204 526.625 69.6621C526.25 71.1621 525.771 72.6621 525.188 74.1621C524.646 75.6204 524 76.9329 523.25 78.0996ZM514.75 62.5371C514.75 63.7454 514.854 65.0579 515.062 66.4746C515.271 67.8913 515.604 69.2663 516.062 70.5996C516.521 71.9329 517.104 73.1829 517.812 74.3496C518.521 75.4746 519.396 76.3704 520.438 77.0371C521.188 75.5788 521.812 74.0996 522.312 72.5996C522.854 71.0579 523.292 69.5788 523.625 68.1621C524 66.7454 524.25 65.4329 524.375 64.2246C524.542 62.9746 524.625 61.8913 524.625 60.9746C524.625 59.7246 524.521 58.5788 524.312 57.5371C524.104 56.4954 523.812 55.5996 523.438 54.8496C523.104 54.0579 522.667 53.4538 522.125 53.0371C521.625 52.5788 521.062 52.3496 520.438 52.3496C519.604 52.3496 518.833 52.6413 518.125 53.2246C517.417 53.7663 516.812 54.5163 516.312 55.4746C515.812 56.3913 515.417 57.4746 515.125 58.7246C514.875 59.9329 514.75 61.2038 514.75 62.5371ZM563.875 81.4746C561.958 83.7246 560.062 85.8079 558.188 87.7246C556.312 89.5996 554.438 91.2246 552.562 92.5996C550.729 93.9329 548.896 94.9746 547.062 95.7246C545.229 96.5163 543.375 96.9121 541.5 96.9121C539.917 96.9121 538.479 96.6204 537.188 96.0371C535.938 95.4954 534.854 94.7246 533.938 93.7246C532.979 92.6829 532.25 91.4329 531.75 89.9746C531.25 88.4746 531 86.8079 531 84.9746C531 82.0996 531.646 79.1413 532.938 76.0996C534.188 73.0579 535.771 70.0996 537.688 67.2246C539.646 64.3496 541.792 61.6204 544.125 59.0371C546.5 56.4538 548.75 54.1621 550.875 52.1621L553.562 54.0371C552.062 56.2454 550.375 58.7454 548.5 61.5371C546.667 64.3288 544.917 67.2246 543.25 70.2246C541.625 73.1829 540.25 76.1621 539.125 79.1621C538 82.1204 537.438 84.8704 537.438 87.4121C537.438 89.1204 537.75 90.5788 538.375 91.7871C539.042 92.9954 540.292 93.5996 542.125 93.5996C544.125 93.5996 546.312 92.8079 548.688 91.2246C551.104 89.6413 553.562 87.5788 556.062 85.0371C558.604 82.4954 561.125 79.6413 563.625 76.4746C566.167 73.2663 568.562 70.0371 570.812 66.7871C573.062 63.5371 575.104 60.4329 576.938 57.4746C578.812 54.5163 580.333 51.9954 581.5 49.9121L586.062 52.1621C583.646 56.9121 581.312 61.3496 579.062 65.4746C576.854 69.5579 574.875 73.2454 573.125 76.5371C571.417 79.7871 570.042 82.6204 569 85.0371C568 87.4538 567.5 89.3704 567.5 90.7871C567.5 91.3704 567.625 91.8496 567.875 92.2246C568.125 92.5996 568.521 92.7871 569.062 92.7871C570.604 92.8288 572.292 92.1621 574.125 90.7871C576 89.4121 577.875 87.6829 579.75 85.5996C581.667 83.5163 583.521 81.2454 585.312 78.7871C587.146 76.2871 588.792 73.9538 590.25 71.7871L592.5 73.5371C592.25 73.9538 591.729 74.8079 590.938 76.0996C590.146 77.3913 589.167 78.8704 588 80.5371C586.833 82.2038 585.5 83.9538 584 85.7871C582.5 87.6204 580.917 89.3079 579.25 90.8496C577.583 92.3496 575.854 93.5996 574.062 94.5996C572.271 95.5579 570.5 96.0371 568.75 96.0371C567.667 96.0371 566.688 95.8496 565.812 95.4746C564.979 95.0996 564.271 94.5996 563.688 93.9746C563.104 93.3496 562.646 92.6204 562.312 91.7871C561.979 90.9538 561.812 90.0788 561.812 89.1621C561.812 88.0788 561.979 86.8913 562.312 85.5996C562.688 84.3079 563.208 82.9329 563.875 81.4746Z" fill="url(#paint0_linear_1268_12558)"/>
<defs>
<linearGradient id="paint0_linear_1268_12558" x1="-215" y1="65.0996" x2="808" y2="65.0996" gradientUnits="userSpaceOnUse">
<stop stop-color="#FF8272"/>
<stop offset="1" stop-color="#80EEBB"/>
</linearGradient>
</defs>
</svg>
