<svg width="32" height="32" viewBox="0 0 32 32" fill="none" xmlns="http://www.w3.org/2000/svg">
<path opacity="0.3" d="M15.3494 28.8403L15.34 28.8348L15.3044 28.8162C14.5645 28.4175 13.8378 27.9951 13.1256 27.5497C11.4276 26.4915 9.80953 25.3122 8.28438 24.0212C4.83438 21.0741 1 16.6524 1 11.356C1.00017 9.62795 1.54122 7.94242 2.54866 6.53152C3.5561 5.12062 4.98037 4.05375 6.62538 3.4778C8.27038 2.90185 10.0552 2.84516 11.7341 3.31552C13.413 3.78588 14.9033 4.76017 16 6.10423C17.0967 4.76017 18.587 3.78588 20.2659 3.31552C21.9448 2.84516 23.7296 2.90185 25.3746 3.4778C27.0196 4.05375 28.4439 5.12062 29.4513 6.53152C30.4588 7.94242 30.9998 9.62795 31 11.356C31 16.6524 27.1675 21.0741 23.7156 24.0212C21.5488 25.855 19.1962 27.4618 16.6956 28.8162L16.66 28.8348L16.6506 28.8403H16.6469C16.4477 28.9449 16.2257 28.9997 16.0002 29C15.7748 29.0003 15.5527 28.9462 15.3531 28.8422L15.3494 28.8403Z" fill="#E44CFF"/>
<path d="M15.653 22.9146L15.648 22.9116L15.629 22.9016C15.2344 22.6869 14.8469 22.4594 14.467 22.2196C13.5614 21.6497 12.6984 21.0147 11.885 20.3196C10.045 18.7326 8 16.3516 8 13.4996C8.00009 12.569 8.28865 11.6614 8.82595 10.9017C9.36325 10.1419 10.1229 9.56743 11.0002 9.25729C11.8775 8.94715 12.8294 8.91662 13.7248 9.1699C14.6203 9.42318 15.4151 9.94782 16 10.6716C16.5849 9.94782 17.3797 9.42318 18.2752 9.1699C19.1706 8.91662 20.1225 8.94715 20.9998 9.25729C21.8771 9.56743 22.6367 10.1419 23.174 10.9017C23.7114 11.6614 23.9999 12.569 24 13.4996C24 16.3516 21.956 18.7326 20.115 20.3196C18.9593 21.307 17.7047 22.1723 16.371 22.9016L16.352 22.9116L16.347 22.9146H16.345C16.2387 22.9709 16.1204 23.0004 16.0001 23.0005C15.8799 23.0007 15.7614 22.9716 15.655 22.9156L15.653 22.9146Z" fill="#E44CFF"/>
</svg>
