<svg xmlns="http://www.w3.org/2000/svg" xml:space="preserve" width="64" height="64" id="dribble">
  <path fill="#F26B95" d="M60.932 19.775a30.961 30.961 0 0 0-2.896-5.331 31.431 31.431 0 0 0-8.478-8.479 31.361 31.361 0 0 0-5.331-2.897A31.536 31.536 0 0 0 32.002.597a31.475 31.475 0 0 0-12.227 2.471 31.524 31.524 0 0 0-9.983 6.73 31.8 31.8 0 0 0-3.829 4.646 31.347 31.347 0 0 0-4.731 11.237 31.656 31.656 0 0 0-.634 6.317c0 2.134.213 4.261.634 6.327a31.18 31.18 0 0 0 1.836 5.898 31.231 31.231 0 0 0 2.895 5.338 32.067 32.067 0 0 0 3.829 4.646 32.264 32.264 0 0 0 4.646 3.829 31.438 31.438 0 0 0 5.337 2.894 30.92 30.92 0 0 0 5.901 1.83 31.28 31.28 0 0 0 6.326.642c2.127 0 4.255-.214 6.322-.642a30.984 30.984 0 0 0 5.903-1.83 31.276 31.276 0 0 0 5.331-2.894 31.966 31.966 0 0 0 4.649-3.829 31.797 31.797 0 0 0 3.829-4.646 31.167 31.167 0 0 0 2.896-5.338 31.298 31.298 0 0 0 1.836-5.898 31.89 31.89 0 0 0 .636-6.327c0-2.128-.217-4.255-.636-6.317a31.591 31.591 0 0 0-1.836-5.906zM32.001 5.183c6.787 0 12.986 2.533 17.712 6.694-.067.1-3.885 5.914-14.012 9.707-4.582-8.422-9.621-15.113-10.02-15.646a26.882 26.882 0 0 1 6.32-.755zm-6.426.778c0 .004-.005.008-.005.008s-.032.008-.081.016c.031-.008.056-.012.086-.024zm-5.019 1.787c.358.477 5.318 7.201 9.962 15.451-12.88 3.422-24.057 3.286-24.762 3.274 1.739-8.307 7.317-15.194 14.8-18.725zm-8.504 42.173a26.719 26.719 0 0 1-6.873-17.922c0-.286.015-.566.022-.847.477.011 13.727.311 27.534-3.822a89.067 89.067 0 0 1 2.177 4.562c-.354.095-.706.201-1.058.32C19.383 36.887 12.04 49.906 12.04 49.906l.012.015zm19.949 8.899c-6.333 0-12.152-2.2-16.744-5.875a27.407 27.407 0 0 1 .259.196s5.14-11.211 21.047-16.753c.058-.021.121-.037.181-.055 3.772 9.803 5.327 18.016 5.727 20.359a26.688 26.688 0 0 1-10.47 2.128zm14.985-4.578c-.273-1.618-1.701-9.49-5.221-19.153 8.659-1.385 16.159.989 16.714 1.171-1.192 7.472-5.474 13.916-11.493 17.982zm-6.851-23.388c-.194-.458-.383-.92-.582-1.381a81.005 81.005 0 0 0-1.782-3.892c10.591-4.323 14.89-10.54 14.94-10.612a26.7 26.7 0 0 1 6.101 16.764c-.387-.085-9.463-2.04-18.677-.879z"></path>
  <path fill="#E64C87" d="M60.932 19.775a30.961 30.961 0 0 0-4.016-6.877 57.292 57.292 0 0 1-3.805 2.6c3.512 4.486 5.64 10.109 5.7 16.234-.387-.084-9.463-2.039-18.677-.879-.194-.458-.383-.92-.582-1.381a81.005 81.005 0 0 0-1.782-3.892c7.348-2.999 11.662-6.906 13.635-9.044-6.578 3.882-15.166 7.611-24.837 10.543-6.026 1.828-11.874 3.16-17.274 4.012 5.053-.202 14.117-.971 23.441-3.762a89.067 89.067 0 0 1 2.177 4.562c-.354.095-.706.201-1.058.32C19.383 36.887 12.04 49.906 12.04 49.906l.012.015a26.719 26.719 0 0 1-6.873-17.922c0-.116.006-.229.01-.344a87.58 87.58 0 0 1-4.59.421c.004 2.107.216 4.209.632 6.25a31.18 31.18 0 0 0 1.836 5.898 31.231 31.231 0 0 0 2.895 5.338 32.067 32.067 0 0 0 3.829 4.646 32.264 32.264 0 0 0 4.646 3.829 31.438 31.438 0 0 0 5.337 2.894 30.92 30.92 0 0 0 5.901 1.83 31.28 31.28 0 0 0 6.326.642c2.127 0 4.255-.214 6.322-.642a30.984 30.984 0 0 0 5.903-1.83 31.276 31.276 0 0 0 5.331-2.894 31.966 31.966 0 0 0 4.649-3.829 31.797 31.797 0 0 0 3.829-4.646 31.167 31.167 0 0 0 2.896-5.338 31.298 31.298 0 0 0 1.836-5.898 31.89 31.89 0 0 0 .636-6.327c0-2.128-.217-4.255-.636-6.317a31.5 31.5 0 0 0-1.835-5.907zM32.001 58.82a26.676 26.676 0 0 1-16.482-5.684c.049-.106 5.214-11.232 21.044-16.748.058-.021.121-.037.181-.055 3.772 9.803 5.327 18.016 5.727 20.359a26.688 26.688 0 0 1-10.47 2.128zm14.985-4.578c-.273-1.618-1.701-9.49-5.221-19.153 8.659-1.385 16.159.989 16.714 1.171-1.192 7.472-5.474 13.916-11.493 17.982z"></path>
  <path fill="#BA3A7B" d="M58.233 37.574c-1.461 6.911-5.584 12.842-11.247 16.668a84.702 84.702 0 0 0-.845-4.229 37.244 37.244 0 0 1-4.513 2.469 86.68 86.68 0 0 1 .841 4.211A26.715 26.715 0 0 1 32 58.82c-5.031 0-9.721-1.412-13.744-3.828a36.897 36.897 0 0 1-11.994-5.006 32.268 32.268 0 0 0 3.527 4.223 32.264 32.264 0 0 0 4.646 3.829 31.438 31.438 0 0 0 5.337 2.894 30.92 30.92 0 0 0 5.901 1.83 31.28 31.28 0 0 0 6.326.642c2.127 0 4.255-.214 6.322-.642a30.984 30.984 0 0 0 5.903-1.83 31.276 31.276 0 0 0 5.331-2.894 31.966 31.966 0 0 0 4.649-3.829 31.797 31.797 0 0 0 3.829-4.646 31.167 31.167 0 0 0 2.896-5.338 31.298 31.298 0 0 0 1.836-5.898A31.89 31.89 0 0 0 63.401 32c0-1.956-.191-3.91-.547-5.815a38.92 38.92 0 0 1-4.621 11.389z"></path>
  <circle cx="27.597" cy="52.074" r="1.125" fill="#BA3A7B"></circle>
  <circle cx="32.972" cy="53.699" r=".5" fill="#BA3A7B"></circle>
  <circle cx="35.972" cy="45.449" r="1" fill="#BA3A7B"></circle>
  <circle cx="51.222" cy="46.699" r=".5" fill="#BA3A7B"></circle>
  <circle cx="53.597" cy="40.824" r=".375" fill="#BA3A7B"></circle>
  <circle cx="4.347" cy="60.199" r=".375" fill="#BA3A7B"></circle>
  <circle cx="5.222" cy="56.199" r="1.5" fill="#E64C87"></circle>
  <circle cx="12.347" cy="38.074" r=".875" fill="#E64C87"></circle>
  <circle cx="38.472" cy="53.824" r=".875" fill="#E64C87"></circle>
  <circle cx="12.472" cy="43.949" r=".75" fill="#E64C87"></circle>
  <circle cx="26.222" cy="47.949" r=".75" fill="#E64C87"></circle>
  <circle cx="21.222" cy="52.449" r=".75" fill="#E64C87"></circle>
  <circle cx="16.722" cy="36.199" r=".5" fill="#E64C87"></circle>
  <circle cx="33.222" cy="49.449" r=".5" fill="#E64C87"></circle>
  <circle cx="9.722" cy="58.449" r=".5" fill="#E64C87"></circle>
</svg>