<svg width="48" height="48" viewBox="0 0 48 48" fill="none" xmlns="http://www.w3.org/2000/svg">
<path d="M3.5625 1.87502H8.61994C8.71706 1.87154 8.81389 1.88751 8.90475 1.922C8.99561 1.95648 9.07865 2.00879 9.149 2.07584C9.21935 2.14288 9.27559 2.22332 9.3144 2.31242C9.35321 2.40151 9.37381 2.49747 9.375 2.59464V4.50002H38.625V2.59464C38.6262 2.49747 38.6468 2.40151 38.6856 2.31242C38.7244 2.22332 38.7806 2.14288 38.851 2.07584C38.9213 2.00879 39.0044 1.95648 39.0952 1.922C39.1861 1.88751 39.2829 1.87154 39.3801 1.87502H44.4375C44.5344 1.87163 44.6309 1.8877 44.7214 1.92229C44.812 1.95687 44.8946 2.00926 44.9646 2.07635C45.0345 2.14345 45.0902 2.22388 45.1285 2.31291C45.1668 2.40194 45.1869 2.49773 45.1875 2.59464V7.96596C45.1876 8.16516 45.1087 8.35629 44.9681 8.49742C44.8275 8.63855 44.6367 8.71815 44.4375 8.71877H42.6562V39.2813H44.4375C44.6367 39.2819 44.8275 39.3615 44.9681 39.5026C45.1087 39.6437 45.1876 39.8349 45.1875 40.0341V45.4054C45.1869 45.5023 45.1668 45.5981 45.1285 45.6871C45.0902 45.7762 45.0345 45.8566 44.9646 45.9237C44.8946 45.9908 44.812 46.0432 44.7214 46.0778C44.6309 46.1123 44.5344 46.1284 44.4375 46.125H39.3801C39.2829 46.1285 39.1861 46.1125 39.0952 46.078C39.0044 46.0436 38.9213 45.9913 38.851 45.9242C38.7806 45.8572 38.7244 45.7767 38.6856 45.6876C38.6468 45.5985 38.6262 45.5026 38.625 45.4054V43.5H9.375V45.4054C9.37381 45.5026 9.35321 45.5985 9.3144 45.6876C9.27559 45.7767 9.21935 45.8572 9.149 45.9242C9.07865 45.9913 8.99561 46.0436 8.90475 46.078C8.81389 46.1125 8.71706 46.1285 8.61994 46.125H3.5625C3.46565 46.1284 3.3691 46.1123 3.27857 46.0778C3.18804 46.0432 3.10537 45.9908 3.03544 45.9237C2.96551 45.8566 2.90975 45.7762 2.87146 45.6871C2.83317 45.5981 2.81312 45.5023 2.8125 45.4054V40.0341C2.81238 39.8349 2.89126 39.6437 3.03186 39.5026C3.17246 39.3615 3.36329 39.2819 3.5625 39.2813H5.34375V8.71877H3.5625C3.36329 8.71815 3.17246 8.63855 3.03186 8.49742C2.89126 8.35629 2.81238 8.16516 2.8125 7.96596V2.59464C2.81312 2.49773 2.83317 2.40194 2.87146 2.31291C2.90975 2.22388 2.96551 2.14345 3.03544 2.07635C3.10537 2.00926 3.18804 1.95687 3.27857 1.92229C3.3691 1.8877 3.46565 1.87163 3.5625 1.87502ZM43.6875 3.37502H40.125V7.21877H43.6875V3.37502ZM40.125 44.625H43.6875V40.7813H40.125V44.625ZM4.3125 44.625H7.875V40.7813H4.3125V44.625ZM6.84375 39.2813H8.61994C8.81967 39.2817 9.01112 39.3611 9.15256 39.5021C9.29401 39.6431 9.37396 39.8344 9.375 40.0341V42H38.625V40.0341C38.626 39.8344 38.706 39.6431 38.8474 39.5021C38.9889 39.3611 39.1803 39.2817 39.3801 39.2813H41.1562V8.71877H39.3801C39.1803 8.71833 38.9889 8.63894 38.8474 8.49792C38.706 8.3569 38.626 8.16568 38.625 7.96596V6.00002H9.375V7.96596C9.37396 8.16568 9.29401 8.3569 9.15256 8.49792C9.01112 8.63894 8.81967 8.71833 8.61994 8.71877H6.84375V39.2813ZM4.3125 7.21877H7.875V3.37502H4.3125V7.21877Z" fill="#292C33"/>
<path d="M16.9736 14.2501H16.1381C15.9392 14.2501 15.7484 14.171 15.6078 14.0304C15.4671 13.8897 15.3881 13.699 15.3881 13.5001C15.3881 13.3011 15.4671 13.1104 15.6078 12.9697C15.7484 12.8291 15.9392 12.7501 16.1381 12.7501H17.3887L18.6844 8.05843C18.7277 7.89939 18.8217 7.75882 18.9522 7.65805C19.0826 7.55728 19.2424 7.50181 19.4072 7.50006H28.8889C29.0561 7.50183 29.218 7.55889 29.3494 7.66234C29.4808 7.76578 29.5743 7.9098 29.6152 8.07193L30.8156 12.7501H31.8619C32.0608 12.7501 32.2515 12.8291 32.3922 12.9697C32.5329 13.1104 32.6119 13.3011 32.6119 13.5001C32.6119 13.699 32.5329 13.8897 32.3922 14.0304C32.2515 14.171 32.0608 14.2501 31.8619 14.2501H31.2007L33.4671 23.0614C33.5135 23.2407 33.4908 23.4309 33.4035 23.5942L24.6629 40.1055C24.599 40.2259 24.5034 40.3266 24.3865 40.3968C24.2696 40.467 24.1358 40.504 23.9995 40.5038C23.8631 40.5036 23.7294 40.4663 23.6127 40.3958C23.496 40.3253 23.4007 40.2243 23.3371 40.1037L14.5969 23.5897C14.5074 23.4238 14.4859 23.2297 14.5369 23.0482L16.9736 14.2501ZM28.3072 9.00006H19.9781L18.9451 12.7501H29.267L28.3072 9.00006ZM24 26.6173C24.2619 26.6173 24.5179 26.5396 24.7356 26.3941C24.9534 26.2486 25.1231 26.0418 25.2233 25.7999C25.3235 25.5579 25.3498 25.2917 25.2987 25.0348C25.2476 24.778 25.1215 24.542 24.9363 24.3569C24.7511 24.1717 24.5152 24.0456 24.2583 23.9945C24.0015 23.9434 23.7352 23.9696 23.4933 24.0698C23.2513 24.17 23.0445 24.3398 22.899 24.5575C22.7535 24.7753 22.6759 25.0313 22.6759 25.2932C22.6763 25.6442 22.8159 25.9808 23.0641 26.229C23.3124 26.4772 23.6489 26.6169 24 26.6173ZM23.25 36.7321V28.0154C22.5911 27.8339 22.0203 27.4196 21.6436 26.8493C21.2669 26.2791 21.1098 25.5915 21.2013 24.9142C21.2929 24.2369 21.627 23.6158 22.1416 23.1661C22.6563 22.7164 23.3165 22.4685 24 22.4685C24.6835 22.4685 25.3437 22.7164 25.8584 23.1661C26.373 23.6158 26.7071 24.2369 26.7987 24.9142C26.8902 25.5915 26.7331 26.2791 26.3564 26.8493C25.9796 27.4196 25.4089 27.8339 24.75 28.0154V36.7321L31.942 23.1536L29.6519 14.2501H18.53L16.0617 23.1607L23.25 36.7321Z" fill="#292C33"/>
</svg>
