<svg width="1440" height="783" viewBox="0 0 1440 783" fill="none" xmlns="http://www.w3.org/2000/svg">
<g clip-path="url(#clip0_59_824)">
<rect y="-59.3196" width="68.5714" height="68.5714" stroke="#EAEAEA" stroke-opacity="0.25" stroke-width="1.37143"/>
<rect x="68.5715" y="-59.3196" width="68.5714" height="68.5714" stroke="#EAEAEA" stroke-opacity="0.25" stroke-width="1.37143"/>
<rect x="137.143" y="-59.3196" width="68.5714" height="68.5714" stroke="#EAEAEA" stroke-opacity="0.25" stroke-width="1.37143"/>
<rect x="205.714" y="-59.3196" width="68.5714" height="68.5714" stroke="#EAEAEA" stroke-opacity="0.25" stroke-width="1.37143"/>
<rect x="274.286" y="-59.3196" width="68.5714" height="68.5714" stroke="#EAEAEA" stroke-opacity="0.25" stroke-width="1.37143"/>
<rect x="342.857" y="-59.3196" width="68.5714" height="68.5714" stroke="#EAEAEA" stroke-opacity="0.25" stroke-width="1.37143"/>
<rect x="411.428" y="-59.3196" width="68.5714" height="68.5714" stroke="#EAEAEA" stroke-opacity="0.25" stroke-width="1.37143"/>
<rect x="480" y="-59.3196" width="68.5714" height="68.5714" stroke="#EAEAEA" stroke-opacity="0.25" stroke-width="1.37143"/>
<rect x="548.571" y="-59.3196" width="68.5714" height="68.5714" stroke="#EAEAEA" stroke-opacity="0.25" stroke-width="1.37143"/>
<rect x="617.143" y="-59.3196" width="68.5714" height="68.5714" stroke="#EAEAEA" stroke-opacity="0.25" stroke-width="1.37143"/>
<rect x="685.714" y="-59.3196" width="68.5714" height="68.5714" stroke="#EAEAEA" stroke-opacity="0.25" stroke-width="1.37143"/>
<rect x="754.286" y="-59.3196" width="68.5714" height="68.5714" stroke="#EAEAEA" stroke-opacity="0.25" stroke-width="1.37143"/>
<rect x="822.857" y="-59.3196" width="68.5714" height="68.5714" stroke="#EAEAEA" stroke-opacity="0.25" stroke-width="1.37143"/>
<rect x="891.429" y="-59.3196" width="68.5714" height="68.5714" stroke="#EAEAEA" stroke-opacity="0.25" stroke-width="1.37143"/>
<rect x="960" y="-59.3196" width="68.5714" height="68.5714" stroke="#EAEAEA" stroke-opacity="0.25" stroke-width="1.37143"/>
<rect x="1028.57" y="-59.3196" width="68.5714" height="68.5714" stroke="#EAEAEA" stroke-opacity="0.25" stroke-width="1.37143"/>
<rect x="1097.14" y="-59.3196" width="68.5714" height="68.5714" stroke="#EAEAEA" stroke-opacity="0.25" stroke-width="1.37143"/>
<rect x="1165.71" y="-59.3196" width="68.5714" height="68.5714" stroke="#EAEAEA" stroke-opacity="0.25" stroke-width="1.37143"/>
<rect x="1234.29" y="-59.3196" width="68.5714" height="68.5714" stroke="#EAEAEA" stroke-opacity="0.25" stroke-width="1.37143"/>
<rect x="1302.86" y="-59.3196" width="68.5714" height="68.5714" stroke="#EAEAEA" stroke-opacity="0.25" stroke-width="1.37143"/>
<rect x="1371.43" y="-59.3196" width="68.5714" height="68.5714" stroke="#EAEAEA" stroke-opacity="0.25" stroke-width="1.37143"/>
<rect y="9.252" width="68.5714" height="68.5714" stroke="#EAEAEA" stroke-opacity="0.25" stroke-width="1.37143"/>
<rect x="68.5715" y="9.25198" width="68.5714" height="68.5714" stroke="#EAEAEA" stroke-opacity="0.25" stroke-width="1.37143"/>
<rect x="137.143" y="9.25198" width="68.5714" height="68.5714" fill="#DFDFDF" fill-opacity="0.05" stroke="#EAEAEA" stroke-opacity="0.25" stroke-width="1.37143"/>
<rect x="205.714" y="9.25198" width="68.5714" height="68.5714" stroke="#EAEAEA" stroke-opacity="0.25" stroke-width="1.37143"/>
<rect x="274.286" y="9.25198" width="68.5714" height="68.5714" stroke="#EAEAEA" stroke-opacity="0.25" stroke-width="1.37143"/>
<rect x="342.857" y="9.25198" width="68.5714" height="68.5714" stroke="#EAEAEA" stroke-opacity="0.25" stroke-width="1.37143"/>
<rect x="411.429" y="9.25198" width="68.5714" height="68.5714" stroke="#EAEAEA" stroke-opacity="0.25" stroke-width="1.37143"/>
<rect x="480" y="9.25198" width="68.5714" height="68.5714" stroke="#EAEAEA" stroke-opacity="0.25" stroke-width="1.37143"/>
<rect x="548.571" y="9.25198" width="68.5714" height="68.5714" stroke="#EAEAEA" stroke-opacity="0.25" stroke-width="1.37143"/>
<rect x="617.143" y="9.25198" width="68.5714" height="68.5714" fill="#DFDFDF" fill-opacity="0.05" stroke="#EAEAEA" stroke-opacity="0.25" stroke-width="1.37143"/>
<rect x="685.714" y="9.25198" width="68.5714" height="68.5714" stroke="#EAEAEA" stroke-opacity="0.25" stroke-width="1.37143"/>
<rect x="754.286" y="9.25198" width="68.5714" height="68.5714" stroke="#EAEAEA" stroke-opacity="0.25" stroke-width="1.37143"/>
<rect x="822.857" y="9.25198" width="68.5714" height="68.5714" stroke="#EAEAEA" stroke-opacity="0.25" stroke-width="1.37143"/>
<rect x="891.429" y="9.25198" width="68.5714" height="68.5714" stroke="#EAEAEA" stroke-opacity="0.25" stroke-width="1.37143"/>
<rect x="960" y="9.25198" width="68.5714" height="68.5714" stroke="#EAEAEA" stroke-opacity="0.25" stroke-width="1.37143"/>
<rect x="1028.57" y="9.25198" width="68.5714" height="68.5714" stroke="#EAEAEA" stroke-opacity="0.25" stroke-width="1.37143"/>
<rect x="1097.14" y="9.25198" width="68.5714" height="68.5714" stroke="#EAEAEA" stroke-opacity="0.25" stroke-width="1.37143"/>
<rect x="1165.71" y="9.252" width="68.5714" height="68.5714" stroke="#EAEAEA" stroke-opacity="0.25" stroke-width="1.37143"/>
<rect x="1234.29" y="9.25198" width="68.5714" height="68.5714" stroke="#EAEAEA" stroke-opacity="0.25" stroke-width="1.37143"/>
<rect x="1302.86" y="9.25198" width="68.5714" height="68.5714" stroke="#EAEAEA" stroke-opacity="0.25" stroke-width="1.37143"/>
<rect x="1371.43" y="9.252" width="68.5714" height="68.5714" stroke="#EAEAEA" stroke-opacity="0.25" stroke-width="1.37143"/>
<rect y="77.8235" width="68.5714" height="68.5714" stroke="#EAEAEA" stroke-opacity="0.25" stroke-width="1.37143"/>
<rect x="68.5715" y="77.8236" width="68.5714" height="68.5714" stroke="#EAEAEA" stroke-opacity="0.25" stroke-width="1.37143"/>
<rect x="137.143" y="77.8236" width="68.5714" height="68.5714" stroke="#EAEAEA" stroke-opacity="0.25" stroke-width="1.37143"/>
<rect x="205.714" y="77.8236" width="68.5714" height="68.5714" stroke="#EAEAEA" stroke-opacity="0.25" stroke-width="1.37143"/>
<rect x="274.286" y="77.8236" width="68.5714" height="68.5714" stroke="#EAEAEA" stroke-opacity="0.25" stroke-width="1.37143"/>
<rect x="342.857" y="77.8236" width="68.5714" height="68.5714" stroke="#EAEAEA" stroke-opacity="0.25" stroke-width="1.37143"/>
<rect x="411.429" y="77.8236" width="68.5714" height="68.5714" stroke="#EAEAEA" stroke-opacity="0.25" stroke-width="1.37143"/>
<rect x="480" y="77.8236" width="68.5714" height="68.5714" stroke="#EAEAEA" stroke-opacity="0.25" stroke-width="1.37143"/>
<rect x="548.571" y="77.8236" width="68.5714" height="68.5714" stroke="#EAEAEA" stroke-opacity="0.25" stroke-width="1.37143"/>
<rect x="617.143" y="77.8236" width="68.5714" height="68.5714" stroke="#EAEAEA" stroke-opacity="0.25" stroke-width="1.37143"/>
<rect x="685.714" y="77.8236" width="68.5714" height="68.5714" stroke="#EAEAEA" stroke-opacity="0.25" stroke-width="1.37143"/>
<rect x="754.286" y="77.8236" width="68.5714" height="68.5714" stroke="#EAEAEA" stroke-opacity="0.25" stroke-width="1.37143"/>
<rect x="822.857" y="77.8236" width="68.5714" height="68.5714" stroke="#EAEAEA" stroke-opacity="0.25" stroke-width="1.37143"/>
<rect x="891.429" y="77.8236" width="68.5714" height="68.5714" stroke="#EAEAEA" stroke-opacity="0.25" stroke-width="1.37143"/>
<rect x="960" y="77.8236" width="68.5714" height="68.5714" stroke="#EAEAEA" stroke-opacity="0.25" stroke-width="1.37143"/>
<rect x="1028.57" y="77.8236" width="68.5714" height="68.5714" stroke="#EAEAEA" stroke-opacity="0.25" stroke-width="1.37143"/>
<rect x="1097.14" y="77.8236" width="68.5714" height="68.5714" fill="#DFDFDF" fill-opacity="0.05" stroke="#EAEAEA" stroke-opacity="0.25" stroke-width="1.37143"/>
<rect x="1165.71" y="77.8235" width="68.5714" height="68.5714" stroke="#EAEAEA" stroke-opacity="0.25" stroke-width="1.37143"/>
<rect x="1234.29" y="77.8236" width="68.5714" height="68.5714" stroke="#EAEAEA" stroke-opacity="0.25" stroke-width="1.37143"/>
<rect x="1302.86" y="77.8236" width="68.5714" height="68.5714" stroke="#EAEAEA" stroke-opacity="0.25" stroke-width="1.37143"/>
<rect x="1371.43" y="77.8235" width="68.5714" height="68.5714" stroke="#EAEAEA" stroke-opacity="0.25" stroke-width="1.37143"/>
<rect y="146.394" width="68.5714" height="68.5714" stroke="#EAEAEA" stroke-opacity="0.25" stroke-width="1.37143"/>
<rect x="68.5715" y="146.394" width="68.5714" height="68.5714" stroke="#EAEAEA" stroke-opacity="0.25" stroke-width="1.37143"/>
<rect x="137.143" y="146.394" width="68.5714" height="68.5714" stroke="#EAEAEA" stroke-opacity="0.25" stroke-width="1.37143"/>
<rect x="205.714" y="146.394" width="68.5714" height="68.5714" stroke="#EAEAEA" stroke-opacity="0.25" stroke-width="1.37143"/>
<rect x="274.286" y="146.394" width="68.5714" height="68.5714" stroke="#EAEAEA" stroke-opacity="0.25" stroke-width="1.37143"/>
<rect x="342.857" y="146.394" width="68.5714" height="68.5714" stroke="#EAEAEA" stroke-opacity="0.25" stroke-width="1.37143"/>
<rect x="411.429" y="146.394" width="68.5714" height="68.5714" stroke="#EAEAEA" stroke-opacity="0.25" stroke-width="1.37143"/>
<rect x="480" y="146.394" width="68.5714" height="68.5714" stroke="#EAEAEA" stroke-opacity="0.25" stroke-width="1.37143"/>
<rect x="548.571" y="146.394" width="68.5714" height="68.5714" stroke="#EAEAEA" stroke-opacity="0.25" stroke-width="1.37143"/>
<rect x="617.143" y="146.394" width="68.5714" height="68.5714" stroke="#EAEAEA" stroke-opacity="0.25" stroke-width="1.37143"/>
<rect x="685.714" y="146.394" width="68.5714" height="68.5714" stroke="#EAEAEA" stroke-opacity="0.25" stroke-width="1.37143"/>
<rect x="754.286" y="146.394" width="68.5714" height="68.5714" stroke="#EAEAEA" stroke-opacity="0.25" stroke-width="1.37143"/>
<rect x="822.857" y="146.394" width="68.5714" height="68.5714" stroke="#EAEAEA" stroke-opacity="0.25" stroke-width="1.37143"/>
<rect x="891.429" y="146.394" width="68.5714" height="68.5714" stroke="#EAEAEA" stroke-opacity="0.25" stroke-width="1.37143"/>
<rect x="960" y="146.394" width="68.5714" height="68.5714" stroke="#EAEAEA" stroke-opacity="0.25" stroke-width="1.37143"/>
<rect x="1028.57" y="146.394" width="68.5714" height="68.5714" stroke="#EAEAEA" stroke-opacity="0.25" stroke-width="1.37143"/>
<rect x="1097.14" y="146.394" width="68.5714" height="68.5714" stroke="#EAEAEA" stroke-opacity="0.25" stroke-width="1.37143"/>
<rect x="1165.71" y="146.394" width="68.5714" height="68.5714" stroke="#EAEAEA" stroke-opacity="0.25" stroke-width="1.37143"/>
<rect x="1234.29" y="146.394" width="68.5714" height="68.5714" stroke="#EAEAEA" stroke-opacity="0.25" stroke-width="1.37143"/>
<rect x="1302.86" y="146.394" width="68.5714" height="68.5714" stroke="#EAEAEA" stroke-opacity="0.25" stroke-width="1.37143"/>
<rect x="1371.43" y="146.394" width="68.5714" height="68.5714" stroke="#EAEAEA" stroke-opacity="0.25" stroke-width="1.37143"/>
<rect y="214.966" width="68.5714" height="68.5714" stroke="#EAEAEA" stroke-opacity="0.25" stroke-width="1.37143"/>
<rect x="68.5715" y="214.966" width="68.5714" height="68.5714" stroke="#EAEAEA" stroke-opacity="0.25" stroke-width="1.37143"/>
<rect x="137.143" y="214.966" width="68.5714" height="68.5714" stroke="#EAEAEA" stroke-opacity="0.25" stroke-width="1.37143"/>
<rect x="205.714" y="214.966" width="68.5714" height="68.5714" fill="#DFDFDF" fill-opacity="0.05" stroke="#EAEAEA" stroke-opacity="0.25" stroke-width="1.37143"/>
<rect x="274.286" y="214.966" width="68.5714" height="68.5714" stroke="#EAEAEA" stroke-opacity="0.25" stroke-width="1.37143"/>
<rect x="342.857" y="214.966" width="68.5714" height="68.5714" stroke="#EAEAEA" stroke-opacity="0.25" stroke-width="1.37143"/>
<rect x="411.429" y="214.966" width="68.5714" height="68.5714" stroke="#EAEAEA" stroke-opacity="0.25" stroke-width="1.37143"/>
<rect x="480" y="214.966" width="68.5714" height="68.5714" stroke="#EAEAEA" stroke-opacity="0.25" stroke-width="1.37143"/>
<rect x="548.571" y="214.966" width="68.5714" height="68.5714" stroke="#EAEAEA" stroke-opacity="0.25" stroke-width="1.37143"/>
<rect x="617.143" y="214.966" width="68.5714" height="68.5714" stroke="#EAEAEA" stroke-opacity="0.25" stroke-width="1.37143"/>
<rect x="685.714" y="214.966" width="68.5714" height="68.5714" stroke="#EAEAEA" stroke-opacity="0.25" stroke-width="1.37143"/>
<rect x="754.286" y="214.966" width="68.5714" height="68.5714" stroke="#EAEAEA" stroke-opacity="0.25" stroke-width="1.37143"/>
<rect x="822.857" y="214.966" width="68.5714" height="68.5714" fill="#DFDFDF" fill-opacity="0.05" stroke="#EAEAEA" stroke-opacity="0.25" stroke-width="1.37143"/>
<rect x="891.429" y="214.966" width="68.5714" height="68.5714" stroke="#EAEAEA" stroke-opacity="0.25" stroke-width="1.37143"/>
<rect x="960" y="214.966" width="68.5714" height="68.5714" stroke="#EAEAEA" stroke-opacity="0.25" stroke-width="1.37143"/>
<rect x="1028.57" y="214.966" width="68.5714" height="68.5714" stroke="#EAEAEA" stroke-opacity="0.25" stroke-width="1.37143"/>
<rect x="1097.14" y="214.966" width="68.5714" height="68.5714" stroke="#EAEAEA" stroke-opacity="0.25" stroke-width="1.37143"/>
<rect x="1165.71" y="214.966" width="68.5714" height="68.5714" stroke="#EAEAEA" stroke-opacity="0.25" stroke-width="1.37143"/>
<rect x="1234.29" y="214.966" width="68.5714" height="68.5714" stroke="#EAEAEA" stroke-opacity="0.25" stroke-width="1.37143"/>
<rect x="1302.86" y="214.966" width="68.5714" height="68.5714" stroke="#EAEAEA" stroke-opacity="0.25" stroke-width="1.37143"/>
<rect x="1371.43" y="214.966" width="68.5714" height="68.5714" stroke="#EAEAEA" stroke-opacity="0.25" stroke-width="1.37143"/>
<rect y="283.538" width="68.5714" height="68.5714" stroke="#EAEAEA" stroke-opacity="0.25" stroke-width="1.37143"/>
<rect x="68.5715" y="283.538" width="68.5714" height="68.5714" stroke="#EAEAEA" stroke-opacity="0.25" stroke-width="1.37143"/>
<rect x="137.143" y="283.538" width="68.5714" height="68.5714" stroke="#EAEAEA" stroke-opacity="0.25" stroke-width="1.37143"/>
<rect x="205.714" y="283.538" width="68.5714" height="68.5714" stroke="#EAEAEA" stroke-opacity="0.25" stroke-width="1.37143"/>
<rect x="274.286" y="283.538" width="68.5714" height="68.5714" stroke="#EAEAEA" stroke-opacity="0.25" stroke-width="1.37143"/>
<rect x="342.857" y="283.538" width="68.5714" height="68.5714" stroke="#EAEAEA" stroke-opacity="0.25" stroke-width="1.37143"/>
<rect x="411.429" y="283.538" width="68.5714" height="68.5714" stroke="#EAEAEA" stroke-opacity="0.25" stroke-width="1.37143"/>
<rect x="480" y="283.538" width="68.5714" height="68.5714" stroke="#EAEAEA" stroke-opacity="0.25" stroke-width="1.37143"/>
<rect x="548.571" y="283.538" width="68.5714" height="68.5714" stroke="#EAEAEA" stroke-opacity="0.25" stroke-width="1.37143"/>
<rect x="617.143" y="283.538" width="68.5714" height="68.5714" stroke="#EAEAEA" stroke-opacity="0.25" stroke-width="1.37143"/>
<rect x="685.714" y="283.538" width="68.5714" height="68.5714" stroke="#EAEAEA" stroke-opacity="0.25" stroke-width="1.37143"/>
<rect x="754.286" y="283.538" width="68.5714" height="68.5714" stroke="#EAEAEA" stroke-opacity="0.25" stroke-width="1.37143"/>
<rect x="822.857" y="283.538" width="68.5714" height="68.5714" stroke="#EAEAEA" stroke-opacity="0.25" stroke-width="1.37143"/>
<rect x="891.429" y="283.538" width="68.5714" height="68.5714" stroke="#EAEAEA" stroke-opacity="0.25" stroke-width="1.37143"/>
<rect x="960" y="283.538" width="68.5714" height="68.5714" stroke="#EAEAEA" stroke-opacity="0.25" stroke-width="1.37143"/>
<rect x="1028.57" y="283.538" width="68.5714" height="68.5714" stroke="#EAEAEA" stroke-opacity="0.25" stroke-width="1.37143"/>
<rect x="1097.14" y="283.538" width="68.5714" height="68.5714" stroke="#EAEAEA" stroke-opacity="0.25" stroke-width="1.37143"/>
<rect x="1165.71" y="283.538" width="68.5714" height="68.5714" stroke="#EAEAEA" stroke-opacity="0.25" stroke-width="1.37143"/>
<rect x="1234.29" y="283.538" width="68.5714" height="68.5714" fill="#DFDFDF" fill-opacity="0.05" stroke="#EAEAEA" stroke-opacity="0.25" stroke-width="1.37143"/>
<rect x="1302.86" y="283.538" width="68.5714" height="68.5714" stroke="#EAEAEA" stroke-opacity="0.25" stroke-width="1.37143"/>
<rect x="1371.43" y="283.538" width="68.5714" height="68.5714" stroke="#EAEAEA" stroke-opacity="0.25" stroke-width="1.37143"/>
<rect y="352.109" width="68.5714" height="68.5714" stroke="#EAEAEA" stroke-opacity="0.25" stroke-width="1.37143"/>
<rect x="68.5715" y="352.109" width="68.5714" height="68.5714" stroke="#EAEAEA" stroke-opacity="0.25" stroke-width="1.37143"/>
<rect x="137.143" y="352.109" width="68.5714" height="68.5714" stroke="#EAEAEA" stroke-opacity="0.25" stroke-width="1.37143"/>
<rect x="205.714" y="352.109" width="68.5714" height="68.5714" stroke="#EAEAEA" stroke-opacity="0.25" stroke-width="1.37143"/>
<rect x="274.286" y="352.109" width="68.5714" height="68.5714" stroke="#EAEAEA" stroke-opacity="0.25" stroke-width="1.37143"/>
<rect x="342.857" y="352.109" width="68.5714" height="68.5714" stroke="#EAEAEA" stroke-opacity="0.25" stroke-width="1.37143"/>
<rect x="411.429" y="352.109" width="68.5714" height="68.5714" stroke="#EAEAEA" stroke-opacity="0.25" stroke-width="1.37143"/>
<rect x="480" y="352.109" width="68.5714" height="68.5714" stroke="#EAEAEA" stroke-opacity="0.25" stroke-width="1.37143"/>
<rect x="548.571" y="352.109" width="68.5714" height="68.5714" stroke="#EAEAEA" stroke-opacity="0.25" stroke-width="1.37143"/>
<rect x="617.143" y="352.109" width="68.5714" height="68.5714" stroke="#EAEAEA" stroke-opacity="0.25" stroke-width="1.37143"/>
<rect x="685.714" y="352.109" width="68.5714" height="68.5714" stroke="#EAEAEA" stroke-opacity="0.25" stroke-width="1.37143"/>
<rect x="754.286" y="352.109" width="68.5714" height="68.5714" stroke="#EAEAEA" stroke-opacity="0.25" stroke-width="1.37143"/>
<rect x="822.857" y="352.109" width="68.5714" height="68.5714" stroke="#EAEAEA" stroke-opacity="0.25" stroke-width="1.37143"/>
<rect x="891.429" y="352.109" width="68.5714" height="68.5714" stroke="#EAEAEA" stroke-opacity="0.25" stroke-width="1.37143"/>
<rect x="960" y="352.109" width="68.5714" height="68.5714" stroke="#EAEAEA" stroke-opacity="0.25" stroke-width="1.37143"/>
<rect x="1028.57" y="352.109" width="68.5714" height="68.5714" stroke="#EAEAEA" stroke-opacity="0.25" stroke-width="1.37143"/>
<rect x="1097.14" y="352.109" width="68.5714" height="68.5714" stroke="#EAEAEA" stroke-opacity="0.25" stroke-width="1.37143"/>
<rect x="1165.71" y="352.109" width="68.5714" height="68.5714" stroke="#EAEAEA" stroke-opacity="0.25" stroke-width="1.37143"/>
<rect x="1234.29" y="352.109" width="68.5714" height="68.5714" stroke="#EAEAEA" stroke-opacity="0.25" stroke-width="1.37143"/>
<rect x="1302.86" y="352.109" width="68.5714" height="68.5714" stroke="#EAEAEA" stroke-opacity="0.25" stroke-width="1.37143"/>
<rect x="1371.43" y="352.109" width="68.5714" height="68.5714" stroke="#EAEAEA" stroke-opacity="0.25" stroke-width="1.37143"/>
<rect y="420.681" width="68.5714" height="68.5714" stroke="#EAEAEA" stroke-opacity="0.25" stroke-width="1.37143"/>
<rect x="68.5715" y="420.681" width="68.5714" height="68.5714" stroke="#EAEAEA" stroke-opacity="0.25" stroke-width="1.37143"/>
<rect x="137.143" y="420.681" width="68.5714" height="68.5714" stroke="#EAEAEA" stroke-opacity="0.25" stroke-width="1.37143"/>
<rect x="205.714" y="420.681" width="68.5714" height="68.5714" stroke="#EAEAEA" stroke-opacity="0.25" stroke-width="1.37143"/>
<rect x="274.286" y="420.681" width="68.5714" height="68.5714" stroke="#EAEAEA" stroke-opacity="0.25" stroke-width="1.37143"/>
<rect x="342.857" y="420.681" width="68.5714" height="68.5714" stroke="#EAEAEA" stroke-opacity="0.25" stroke-width="1.37143"/>
<rect x="411.429" y="420.681" width="68.5714" height="68.5714" stroke="#EAEAEA" stroke-opacity="0.25" stroke-width="1.37143"/>
<rect x="480" y="420.681" width="68.5714" height="68.5714" stroke="#EAEAEA" stroke-opacity="0.25" stroke-width="1.37143"/>
<rect x="548.571" y="420.681" width="68.5714" height="68.5714" fill="#DFDFDF" fill-opacity="0.05" stroke="#EAEAEA" stroke-opacity="0.25" stroke-width="1.37143"/>
<rect x="617.143" y="420.681" width="68.5714" height="68.5714" stroke="#EAEAEA" stroke-opacity="0.25" stroke-width="1.37143"/>
<rect x="685.714" y="420.681" width="68.5714" height="68.5714" stroke="#EAEAEA" stroke-opacity="0.25" stroke-width="1.37143"/>
<rect x="754.286" y="420.681" width="68.5714" height="68.5714" stroke="#EAEAEA" stroke-opacity="0.25" stroke-width="1.37143"/>
<rect x="822.857" y="420.681" width="68.5714" height="68.5714" stroke="#EAEAEA" stroke-opacity="0.25" stroke-width="1.37143"/>
<rect x="891.429" y="420.681" width="68.5714" height="68.5714" stroke="#EAEAEA" stroke-opacity="0.25" stroke-width="1.37143"/>
<rect x="960" y="420.681" width="68.5714" height="68.5714" stroke="#EAEAEA" stroke-opacity="0.25" stroke-width="1.37143"/>
<rect x="1028.57" y="420.681" width="68.5714" height="68.5714" stroke="#EAEAEA" stroke-opacity="0.25" stroke-width="1.37143"/>
<rect x="1097.14" y="420.681" width="68.5714" height="68.5714" stroke="#EAEAEA" stroke-opacity="0.25" stroke-width="1.37143"/>
<rect x="1165.71" y="420.681" width="68.5714" height="68.5714" stroke="#EAEAEA" stroke-opacity="0.25" stroke-width="1.37143"/>
<rect x="1234.29" y="420.681" width="68.5714" height="68.5714" stroke="#EAEAEA" stroke-opacity="0.25" stroke-width="1.37143"/>
<rect x="1302.86" y="420.681" width="68.5714" height="68.5714" stroke="#EAEAEA" stroke-opacity="0.25" stroke-width="1.37143"/>
<rect x="1371.43" y="420.681" width="68.5714" height="68.5714" stroke="#EAEAEA" stroke-opacity="0.25" stroke-width="1.37143"/>
<rect y="489.252" width="68.5714" height="68.5714" stroke="#EAEAEA" stroke-opacity="0.25" stroke-width="1.37143"/>
<rect x="68.5715" y="489.251" width="68.5714" height="68.5714" stroke="#EAEAEA" stroke-opacity="0.25" stroke-width="1.37143"/>
<rect x="137.143" y="489.251" width="68.5714" height="68.5714" stroke="#EAEAEA" stroke-opacity="0.25" stroke-width="1.37143"/>
<rect x="205.714" y="489.251" width="68.5714" height="68.5714" stroke="#EAEAEA" stroke-opacity="0.25" stroke-width="1.37143"/>
<rect x="274.286" y="489.251" width="68.5714" height="68.5714" fill="#DFDFDF" fill-opacity="0.05" stroke="#EAEAEA" stroke-opacity="0.25" stroke-width="1.37143"/>
<rect x="342.857" y="489.251" width="68.5714" height="68.5714" stroke="#EAEAEA" stroke-opacity="0.25" stroke-width="1.37143"/>
<rect x="411.429" y="489.251" width="68.5714" height="68.5714" stroke="#EAEAEA" stroke-opacity="0.25" stroke-width="1.37143"/>
<rect x="480" y="489.251" width="68.5714" height="68.5714" stroke="#EAEAEA" stroke-opacity="0.25" stroke-width="1.37143"/>
<rect x="548.571" y="489.251" width="68.5714" height="68.5714" stroke="#EAEAEA" stroke-opacity="0.25" stroke-width="1.37143"/>
<rect x="617.143" y="489.251" width="68.5714" height="68.5714" stroke="#EAEAEA" stroke-opacity="0.25" stroke-width="1.37143"/>
<rect x="685.714" y="489.251" width="68.5714" height="68.5714" stroke="#EAEAEA" stroke-opacity="0.25" stroke-width="1.37143"/>
<rect x="754.286" y="489.251" width="68.5714" height="68.5714" stroke="#EAEAEA" stroke-opacity="0.25" stroke-width="1.37143"/>
<rect x="822.857" y="489.251" width="68.5714" height="68.5714" stroke="#EAEAEA" stroke-opacity="0.25" stroke-width="1.37143"/>
<rect x="891.429" y="489.251" width="68.5714" height="68.5714" stroke="#EAEAEA" stroke-opacity="0.25" stroke-width="1.37143"/>
<rect x="960" y="489.251" width="68.5714" height="68.5714" stroke="#EAEAEA" stroke-opacity="0.25" stroke-width="1.37143"/>
<rect x="1028.57" y="489.251" width="68.5714" height="68.5714" stroke="#EAEAEA" stroke-opacity="0.25" stroke-width="1.37143"/>
<rect x="1097.14" y="489.251" width="68.5714" height="68.5714" stroke="#EAEAEA" stroke-opacity="0.25" stroke-width="1.37143"/>
<rect x="1165.71" y="489.252" width="68.5714" height="68.5714" stroke="#EAEAEA" stroke-opacity="0.25" stroke-width="1.37143"/>
<rect x="1234.29" y="489.251" width="68.5714" height="68.5714" stroke="#EAEAEA" stroke-opacity="0.25" stroke-width="1.37143"/>
<rect x="1302.86" y="489.251" width="68.5714" height="68.5714" stroke="#EAEAEA" stroke-opacity="0.25" stroke-width="1.37143"/>
<rect x="1371.43" y="489.252" width="68.5714" height="68.5714" stroke="#EAEAEA" stroke-opacity="0.25" stroke-width="1.37143"/>
<rect y="557.823" width="68.5714" height="68.5714" stroke="#EAEAEA" stroke-opacity="0.25" stroke-width="1.37143"/>
<rect x="68.5715" y="557.823" width="68.5714" height="68.5714" stroke="#EAEAEA" stroke-opacity="0.25" stroke-width="1.37143"/>
<rect x="137.143" y="557.823" width="68.5714" height="68.5714" stroke="#EAEAEA" stroke-opacity="0.25" stroke-width="1.37143"/>
<rect x="205.714" y="557.823" width="68.5714" height="68.5714" stroke="#EAEAEA" stroke-opacity="0.25" stroke-width="1.37143"/>
<rect x="274.286" y="557.823" width="68.5714" height="68.5714" stroke="#EAEAEA" stroke-opacity="0.25" stroke-width="1.37143"/>
<rect x="342.857" y="557.823" width="68.5714" height="68.5714" stroke="#EAEAEA" stroke-opacity="0.25" stroke-width="1.37143"/>
<rect x="411.429" y="557.823" width="68.5714" height="68.5714" stroke="#EAEAEA" stroke-opacity="0.25" stroke-width="1.37143"/>
<rect x="480" y="557.823" width="68.5714" height="68.5714" stroke="#EAEAEA" stroke-opacity="0.25" stroke-width="1.37143"/>
<rect x="548.571" y="557.823" width="68.5714" height="68.5714" stroke="#EAEAEA" stroke-opacity="0.25" stroke-width="1.37143"/>
<rect x="617.143" y="557.823" width="68.5714" height="68.5714" stroke="#EAEAEA" stroke-opacity="0.25" stroke-width="1.37143"/>
<rect x="685.714" y="557.823" width="68.5714" height="68.5714" stroke="#EAEAEA" stroke-opacity="0.25" stroke-width="1.37143"/>
<rect x="754.286" y="557.823" width="68.5714" height="68.5714" stroke="#EAEAEA" stroke-opacity="0.25" stroke-width="1.37143"/>
<rect x="822.857" y="557.823" width="68.5714" height="68.5714" stroke="#EAEAEA" stroke-opacity="0.25" stroke-width="1.37143"/>
<rect x="891.429" y="557.823" width="68.5714" height="68.5714" stroke="#EAEAEA" stroke-opacity="0.25" stroke-width="1.37143"/>
<rect x="960" y="557.823" width="68.5714" height="68.5714" stroke="#EAEAEA" stroke-opacity="0.25" stroke-width="1.37143"/>
<rect x="1028.57" y="557.823" width="68.5714" height="68.5714" stroke="#EAEAEA" stroke-opacity="0.25" stroke-width="1.37143"/>
<rect x="1097.14" y="557.823" width="68.5714" height="68.5714" stroke="#EAEAEA" stroke-opacity="0.25" stroke-width="1.37143"/>
<rect x="1165.71" y="557.823" width="68.5714" height="68.5714" stroke="#EAEAEA" stroke-opacity="0.25" stroke-width="1.37143"/>
<rect x="1234.29" y="557.823" width="68.5714" height="68.5714" stroke="#EAEAEA" stroke-opacity="0.25" stroke-width="1.37143"/>
<rect x="1302.86" y="557.823" width="68.5714" height="68.5714" stroke="#EAEAEA" stroke-opacity="0.25" stroke-width="1.37143"/>
<rect x="1371.43" y="557.823" width="68.5714" height="68.5714" stroke="#EAEAEA" stroke-opacity="0.25" stroke-width="1.37143"/>
<rect y="626.395" width="68.5714" height="68.5714" stroke="#EAEAEA" stroke-opacity="0.25" stroke-width="1.37143"/>
<rect x="68.5715" y="626.395" width="68.5714" height="68.5714" stroke="#EAEAEA" stroke-opacity="0.25" stroke-width="1.37143"/>
<rect x="137.143" y="626.395" width="68.5714" height="68.5714" stroke="#EAEAEA" stroke-opacity="0.25" stroke-width="1.37143"/>
<rect x="205.714" y="626.395" width="68.5714" height="68.5714" stroke="#EAEAEA" stroke-opacity="0.25" stroke-width="1.37143"/>
<rect x="274.286" y="626.395" width="68.5714" height="68.5714" stroke="#EAEAEA" stroke-opacity="0.25" stroke-width="1.37143"/>
<rect x="342.857" y="626.395" width="68.5714" height="68.5714" stroke="#EAEAEA" stroke-opacity="0.25" stroke-width="1.37143"/>
<rect x="411.429" y="626.395" width="68.5714" height="68.5714" stroke="#EAEAEA" stroke-opacity="0.25" stroke-width="1.37143"/>
<rect x="480" y="626.395" width="68.5714" height="68.5714" stroke="#EAEAEA" stroke-opacity="0.25" stroke-width="1.37143"/>
<rect x="548.571" y="626.395" width="68.5714" height="68.5714" stroke="#EAEAEA" stroke-opacity="0.25" stroke-width="1.37143"/>
<rect x="617.143" y="626.395" width="68.5714" height="68.5714" stroke="#EAEAEA" stroke-opacity="0.25" stroke-width="1.37143"/>
<rect x="685.714" y="626.395" width="68.5714" height="68.5714" stroke="#EAEAEA" stroke-opacity="0.25" stroke-width="1.37143"/>
<rect x="754.286" y="626.395" width="68.5714" height="68.5714" stroke="#EAEAEA" stroke-opacity="0.25" stroke-width="1.37143"/>
<rect x="822.857" y="626.395" width="68.5714" height="68.5714" stroke="#EAEAEA" stroke-opacity="0.25" stroke-width="1.37143"/>
<rect x="891.429" y="626.395" width="68.5714" height="68.5714" stroke="#EAEAEA" stroke-opacity="0.25" stroke-width="1.37143"/>
<rect x="960" y="626.395" width="68.5714" height="68.5714" stroke="#EAEAEA" stroke-opacity="0.25" stroke-width="1.37143"/>
<rect x="1028.57" y="626.395" width="68.5714" height="68.5714" stroke="#EAEAEA" stroke-opacity="0.25" stroke-width="1.37143"/>
<rect x="1097.14" y="626.395" width="68.5714" height="68.5714" stroke="#EAEAEA" stroke-opacity="0.25" stroke-width="1.37143"/>
<rect x="1165.71" y="626.395" width="68.5714" height="68.5714" stroke="#EAEAEA" stroke-opacity="0.25" stroke-width="1.37143"/>
<rect x="1234.29" y="626.395" width="68.5714" height="68.5714" stroke="#EAEAEA" stroke-opacity="0.25" stroke-width="1.37143"/>
<rect x="1302.86" y="626.395" width="68.5714" height="68.5714" stroke="#EAEAEA" stroke-opacity="0.25" stroke-width="1.37143"/>
<rect x="1371.43" y="626.395" width="68.5714" height="68.5714" stroke="#EAEAEA" stroke-opacity="0.25" stroke-width="1.37143"/>
<rect y="694.966" width="68.5714" height="68.5714" stroke="#EAEAEA" stroke-opacity="0.25" stroke-width="1.37143"/>
<rect x="68.5715" y="694.966" width="68.5714" height="68.5714" stroke="#EAEAEA" stroke-opacity="0.25" stroke-width="1.37143"/>
<rect x="137.143" y="694.966" width="68.5714" height="68.5714" stroke="#EAEAEA" stroke-opacity="0.25" stroke-width="1.37143"/>
<rect x="205.714" y="694.966" width="68.5714" height="68.5714" stroke="#EAEAEA" stroke-opacity="0.25" stroke-width="1.37143"/>
<rect x="274.286" y="694.966" width="68.5714" height="68.5714" stroke="#EAEAEA" stroke-opacity="0.25" stroke-width="1.37143"/>
<rect x="342.857" y="694.966" width="68.5714" height="68.5714" stroke="#EAEAEA" stroke-opacity="0.25" stroke-width="1.37143"/>
<rect x="411.429" y="694.966" width="68.5714" height="68.5714" stroke="#EAEAEA" stroke-opacity="0.25" stroke-width="1.37143"/>
<rect x="480" y="694.966" width="68.5714" height="68.5714" stroke="#EAEAEA" stroke-opacity="0.25" stroke-width="1.37143"/>
<rect x="548.571" y="694.966" width="68.5714" height="68.5714" stroke="#EAEAEA" stroke-opacity="0.25" stroke-width="1.37143"/>
<rect x="617.143" y="694.966" width="68.5714" height="68.5714" stroke="#EAEAEA" stroke-opacity="0.25" stroke-width="1.37143"/>
<rect x="685.714" y="694.966" width="68.5714" height="68.5714" stroke="#EAEAEA" stroke-opacity="0.25" stroke-width="1.37143"/>
<rect x="754.286" y="694.966" width="68.5714" height="68.5714" stroke="#EAEAEA" stroke-opacity="0.25" stroke-width="1.37143"/>
<rect x="822.857" y="694.966" width="68.5714" height="68.5714" stroke="#EAEAEA" stroke-opacity="0.25" stroke-width="1.37143"/>
<rect x="891.429" y="694.966" width="68.5714" height="68.5714" stroke="#EAEAEA" stroke-opacity="0.25" stroke-width="1.37143"/>
<rect x="960" y="694.966" width="68.5714" height="68.5714" stroke="#EAEAEA" stroke-opacity="0.25" stroke-width="1.37143"/>
<rect x="1028.57" y="694.966" width="68.5714" height="68.5714" stroke="#EAEAEA" stroke-opacity="0.25" stroke-width="1.37143"/>
<rect x="1097.14" y="694.966" width="68.5714" height="68.5714" stroke="#EAEAEA" stroke-opacity="0.25" stroke-width="1.37143"/>
<rect x="1165.71" y="694.966" width="68.5714" height="68.5714" stroke="#EAEAEA" stroke-opacity="0.25" stroke-width="1.37143"/>
<rect x="1234.29" y="694.966" width="68.5714" height="68.5714" stroke="#EAEAEA" stroke-opacity="0.25" stroke-width="1.37143"/>
<rect x="1302.86" y="694.966" width="68.5714" height="68.5714" stroke="#EAEAEA" stroke-opacity="0.25" stroke-width="1.37143"/>
<rect x="1371.43" y="694.966" width="68.5714" height="68.5714" stroke="#EAEAEA" stroke-opacity="0.25" stroke-width="1.37143"/>
<rect y="763.538" width="68.5714" height="68.5714" stroke="#EAEAEA" stroke-opacity="0.25" stroke-width="1.37143"/>
<rect x="68.5715" y="763.538" width="68.5714" height="68.5714" stroke="#EAEAEA" stroke-opacity="0.25" stroke-width="1.37143"/>
<rect x="137.143" y="763.538" width="68.5714" height="68.5714" stroke="#EAEAEA" stroke-opacity="0.25" stroke-width="1.37143"/>
<rect x="205.714" y="763.538" width="68.5714" height="68.5714" stroke="#EAEAEA" stroke-opacity="0.25" stroke-width="1.37143"/>
<rect x="274.286" y="763.538" width="68.5714" height="68.5714" stroke="#EAEAEA" stroke-opacity="0.25" stroke-width="1.37143"/>
<rect x="342.857" y="763.538" width="68.5714" height="68.5714" stroke="#EAEAEA" stroke-opacity="0.25" stroke-width="1.37143"/>
<rect x="411.429" y="763.538" width="68.5714" height="68.5714" stroke="#EAEAEA" stroke-opacity="0.25" stroke-width="1.37143"/>
<rect x="480" y="763.538" width="68.5714" height="68.5714" stroke="#EAEAEA" stroke-opacity="0.25" stroke-width="1.37143"/>
<rect x="548.571" y="763.538" width="68.5714" height="68.5714" stroke="#EAEAEA" stroke-opacity="0.25" stroke-width="1.37143"/>
<rect x="617.143" y="763.538" width="68.5714" height="68.5714" stroke="#EAEAEA" stroke-opacity="0.25" stroke-width="1.37143"/>
<rect x="685.714" y="763.538" width="68.5714" height="68.5714" stroke="#EAEAEA" stroke-opacity="0.25" stroke-width="1.37143"/>
<rect x="754.286" y="763.538" width="68.5714" height="68.5714" stroke="#EAEAEA" stroke-opacity="0.25" stroke-width="1.37143"/>
<rect x="822.857" y="763.538" width="68.5714" height="68.5714" stroke="#EAEAEA" stroke-opacity="0.25" stroke-width="1.37143"/>
<rect x="891.429" y="763.538" width="68.5714" height="68.5714" stroke="#EAEAEA" stroke-opacity="0.25" stroke-width="1.37143"/>
<rect x="960" y="763.538" width="68.5714" height="68.5714" stroke="#EAEAEA" stroke-opacity="0.25" stroke-width="1.37143"/>
<rect x="1028.57" y="763.538" width="68.5714" height="68.5714" stroke="#EAEAEA" stroke-opacity="0.25" stroke-width="1.37143"/>
<rect x="1097.14" y="763.538" width="68.5714" height="68.5714" stroke="#EAEAEA" stroke-opacity="0.25" stroke-width="1.37143"/>
<rect x="1165.71" y="763.538" width="68.5714" height="68.5714" stroke="#EAEAEA" stroke-opacity="0.25" stroke-width="1.37143"/>
<rect x="1234.29" y="763.538" width="68.5714" height="68.5714" stroke="#EAEAEA" stroke-opacity="0.25" stroke-width="1.37143"/>
<rect x="1302.86" y="763.538" width="68.5714" height="68.5714" stroke="#EAEAEA" stroke-opacity="0.25" stroke-width="1.37143"/>
<rect x="1371.43" y="763.538" width="68.5714" height="68.5714" stroke="#EAEAEA" stroke-opacity="0.25" stroke-width="1.37143"/>
<rect x="-104.333" y="-252.061" width="1648" height="1035.03" fill="url(#paint0_radial_59_824)"/>
<g filter="url(#filter0_f_59_824)">
<rect x="55.6667" y="-790.843" width="1449.14" height="1141.37" fill="url(#paint1_radial_59_824)"/>
</g>
</g>
<defs>
<filter id="filter0_f_59_824" x="-287.19" y="-1133.7" width="2134.86" height="1827.08" filterUnits="userSpaceOnUse" color-interpolation-filters="sRGB">
<feFlood flood-opacity="0" result="BackgroundImageFix"/>
<feBlend mode="normal" in="SourceGraphic" in2="BackgroundImageFix" result="shape"/>
<feGaussianBlur stdDeviation="171.429" result="effect1_foregroundBlur_59_824"/>
</filter>
<radialGradient id="paint0_radial_59_824" cx="0" cy="0" r="1" gradientUnits="userSpaceOnUse" gradientTransform="translate(719.667 265.452) rotate(90) scale(517.514 824)">
<stop stop-color="white" stop-opacity="0"/>
<stop offset="0.833333" stop-color="#E9F2FB"/>
</radialGradient>
<radialGradient id="paint1_radial_59_824" cx="0" cy="0" r="1" gradientUnits="userSpaceOnUse" gradientTransform="translate(780.238 -220.16) rotate(90.0292) scale(466.66 592.498)">
<stop offset="0.015625" stop-color="#F6465B" stop-opacity="0.39"/>
<stop offset="0.223958" stop-color="#F6465B" stop-opacity="0.34"/>
<stop offset="0.911458" stop-color="#F6465B" stop-opacity="0"/>
</radialGradient>
<clipPath id="clip0_59_824">
<rect width="1440" height="783" fill="white"/>
</clipPath>
</defs>
</svg>
