<svg width="16" height="16" viewBox="0 0 16 16" fill="none" xmlns="http://www.w3.org/2000/svg">
<g clip-path="url(#clip0_59_1462)">
<path d="M12.2427 3.09062C13.3443 4.19204 13.9743 5.6787 13.9995 7.23623C14.0248 8.79376 13.4433 10.3001 12.378 11.4366L12.2427 11.5766L9.41404 14.4046C9.05512 14.7633 8.57329 14.9722 8.06614 14.9889C7.55899 15.0056 7.06445 14.8289 6.6827 14.4946L6.5867 14.4046L3.75737 11.576C2.63215 10.4507 2 8.9246 2 7.33329C2 5.74198 2.63215 4.21585 3.75737 3.09062C4.8826 1.9654 6.40873 1.33325 8.00004 1.33325C9.59135 1.33325 11.1175 1.9654 12.2427 3.09062ZM8.00004 5.33329C7.73739 5.33329 7.47732 5.38502 7.23467 5.48553C6.99202 5.58604 6.77154 5.73336 6.58582 5.91908C6.40011 6.10479 6.25279 6.32527 6.15228 6.56792C6.05177 6.81057 6.00004 7.07065 6.00004 7.33329C6.00004 7.59593 6.05177 7.856 6.15228 8.09866C6.25279 8.34131 6.40011 8.56179 6.58582 8.7475C6.77154 8.93322 6.99202 9.08054 7.23467 9.18105C7.47732 9.28156 7.73739 9.33329 8.00004 9.33329C8.53047 9.33329 9.03918 9.12258 9.41425 8.7475C9.78932 8.37243 10 7.86372 10 7.33329C10 6.80286 9.78932 6.29415 9.41425 5.91908C9.03918 5.544 8.53047 5.33329 8.00004 5.33329Z" fill="#51545C"/>
</g>
<defs>
<clipPath id="clip0_59_1462">
<rect width="16" height="16" fill="white"/>
</clipPath>
</defs>
</svg>
