<svg width="48" height="48" viewBox="0 0 48 48" fill="none" xmlns="http://www.w3.org/2000/svg">
<path d="M45 36.75H3C2.80109 36.75 2.61032 36.671 2.46967 36.5303C2.32902 36.3897 2.25 36.1989 2.25 36V12C2.25 11.8011 2.32902 11.6103 2.46967 11.4697C2.61032 11.329 2.80109 11.25 3 11.25H7.5675C7.75525 11.2492 7.93646 11.3189 8.07532 11.4453C8.21419 11.5717 8.3006 11.7455 8.3175 11.9325C8.67286 15.8471 10.4791 19.4873 13.3814 22.138C16.2837 24.7888 20.0723 26.2586 24.003 26.2586C27.9337 26.2586 31.7223 24.7888 34.6246 22.138C37.5269 19.4873 39.3331 15.8471 39.6885 11.9325C39.7054 11.7455 39.7918 11.5717 39.9307 11.4453C40.0695 11.3189 40.2507 11.2492 40.4385 11.25H45C45.1989 11.25 45.3897 11.329 45.5303 11.4697C45.671 11.6103 45.75 11.8011 45.75 12V36C45.75 36.1989 45.671 36.3897 45.5303 36.5303C45.3897 36.671 45.1989 36.75 45 36.75ZM3.75 35.25H44.25V12.75H41.1052C40.5637 16.9036 38.5294 20.7182 35.3819 23.4821C32.2344 26.2459 28.1887 27.77 24 27.77C19.8113 27.77 15.7656 26.2459 12.6181 23.4821C9.47059 20.7182 7.43625 16.9036 6.89475 12.75H3.75V35.25Z" fill="#292C33"/>
<path d="M15.75 23.25C15.0083 23.25 14.2833 23.0301 13.6666 22.618C13.0499 22.206 12.5693 21.6203 12.2855 20.9351C12.0016 20.2498 11.9274 19.4958 12.0721 18.7684C12.2168 18.041 12.5739 17.3728 13.0984 16.8484C13.6228 16.3239 14.291 15.9668 15.0184 15.8221C15.7458 15.6774 16.4998 15.7516 17.1851 16.0355C17.8703 16.3193 18.456 16.7999 18.868 17.4166C19.2801 18.0333 19.5 18.7583 19.5 19.5C19.4988 20.4942 19.1033 21.4473 18.4003 22.1503C17.6973 22.8533 16.7442 23.2488 15.75 23.25ZM15.75 17.25C15.305 17.25 14.87 17.382 14.5 17.6292C14.13 17.8764 13.8416 18.2278 13.6713 18.639C13.501 19.0501 13.4564 19.5025 13.5432 19.939C13.6301 20.3754 13.8443 20.7763 14.159 21.091C14.4737 21.4057 14.8746 21.62 15.311 21.7068C15.7475 21.7936 16.1999 21.749 16.611 21.5787C17.0222 21.4084 17.3736 21.12 17.6208 20.75C17.868 20.38 18 19.945 18 19.5C18 18.9033 17.7629 18.331 17.341 17.909C16.919 17.4871 16.3467 17.25 15.75 17.25Z" fill="#292C33"/>
</svg>
